<svg xmlns="http://www.w3.org/2000/svg" width="95" height="112"><path d="M30.595 86.616s-4.922 2.489 3.5 3.331c10.207 1.012 15.424.867 26.672-.984a49.457 49.457 0 007.087 3.009c-25.216 9.4-57.068-.544-37.263-5.356m-3.077-12.262s-5.521 3.553 2.911 4.312c10.9.978 19.514 1.058 34.415-1.437a15.679 15.679 0 005.3 2.81c-30.488 7.752-64.445.611-42.627-5.685" fill="#5382a1"/><path d="M53.49 53.553c6.213 6.22-1.632 11.817-1.632 11.817s15.776-7.081 8.531-15.949c-6.767-8.27-11.959-12.379 16.141-26.545 0 0-44.1 9.576-23.035 30.677" fill="#e76f00"/><path d="M86.84 95.686s3.643 2.61-4.011 4.632c-14.555 3.834-60.579 4.992-73.365.153-4.6-1.738 4.023-4.151 6.734-4.657a20.008 20.008 0 014.443-.434c-5.111-3.131-33.037 6.147-14.185 8.8 51.412 7.25 93.72-3.264 80.384-8.495M32.963 61.649s-23.411 4.835-8.29 6.59c6.384.743 19.111.575 30.966-.289 9.689-.71 19.417-2.221 19.417-2.221a43.589 43.589 0 00-5.888 2.74c-23.773 5.437-69.7 2.908-56.478-2.654a50.052 50.052 0 0120.273-4.166m41.997 20.41c24.167-10.919 12.993-21.412 5.194-20a20.2 20.2 0 00-2.764.646 4.315 4.315 0 012.065-1.385c15.429-4.717 27.3 13.911-4.981 21.288a1.891 1.891 0 00.486-.55" fill="#5382a1"/><path d="M60.389 0s13.384 11.641-12.694 29.542c-20.912 14.36-4.769 22.547-.009 31.9-12.207-9.574-21.165-18.004-15.155-25.85C41.352 24.075 65.789 18.492 60.389 0" fill="#e76f00"/><path d="M35.337 111.648c23.2 1.291 58.819-.716 59.662-10.26 0 0-1.622 3.618-19.171 6.491-19.8 3.24-44.219 2.861-58.7.785 0 0 2.965 2.134 18.211 2.984" fill="#5382a1"/></svg>