<svg xmlns="http://www.w3.org/2000/svg" width="80" height="80" viewBox="0 0 80 80"><g transform="translate(-754 -4228)"><g transform="translate(769 4243)"><path d="M8.854,0H41.146A8.962,8.962,0,0,1,50,9.081V40.919A8.962,8.962,0,0,1,41.146,50H8.854A8.962,8.962,0,0,1,0,40.919V9.081A8.962,8.962,0,0,1,8.854,0Z" fill="#300"/><g transform="translate(10.331 11.09)"><path d="M63.488,77.1h-7.75l-1.583,5.021a.366.366,0,0,1-.4.3H49.842c-.229,0-.292-.128-.229-.385l6.708-19.808c.063-.214.125-.449.208-.705a7.649,7.649,0,0,0,.125-1.389.211.211,0,0,1,.167-.235h5.4c.167,0,.25.064.271.171l7.6,22.009c.063.235,0,.342-.208.342H65.53a.315.315,0,0,1-.333-.235Zm-6.542-4.338h5.292c-.125-.449-.292-.983-.479-1.538-.187-.577-.375-1.2-.563-1.838-.208-.662-.4-1.3-.6-1.966s-.4-1.282-.562-1.9c-.167-.6-.312-1.154-.458-1.667H59.53a26.776,26.776,0,0,1-.708,2.756c-.312,1.026-.625,2.094-.958,3.162-.292,1.09-.6,2.094-.917,2.991Z" transform="translate(-49.59 -58.191)" fill="#ff9a00"/><path d="M160.058,57.263a2.544,2.544,0,0,1-1.854-.748,2.818,2.818,0,0,1-.708-1.966,2.547,2.547,0,0,1,.75-1.9A2.632,2.632,0,0,1,160.1,51.9a2.462,2.462,0,0,1,1.9.748,2.994,2.994,0,0,1-.042,3.868A2.417,2.417,0,0,1,160.058,57.263ZM157.725,75.81V59.357c0-.214.083-.3.271-.3h4.125c.188,0,.271.107.271.3V75.81c0,.235-.083.342-.271.342h-4.083C157.829,76.152,157.725,76.024,157.725,75.81Z" transform="translate(-135.014 -51.9)" fill="#ff9a00"/></g></g><g transform="translate(754 4228)" fill="none" stroke="#fff" stroke-width="1" opacity="0"><rect width="80" height="80" stroke="none"/><rect x="0.5" y="0.5" width="79" height="79" fill="none"/></g></g></svg>