<svg xmlns="http://www.w3.org/2000/svg" width="90" height="90" viewBox="0 0 90 90"><path d="M15.938,0H74.063A16.132,16.132,0,0,1,90,16.346V73.654A16.132,16.132,0,0,1,74.063,90H15.938A16.132,16.132,0,0,1,0,73.654V16.346A16.132,16.132,0,0,1,15.938,0Z" fill="#300"/><g transform="translate(18.596 19.962)"><path d="M74.607,90.862H60.657L57.807,99.9a.659.659,0,0,1-.713.538h-7.05c-.412,0-.525-.231-.412-.692L61.707,64.092c.113-.385.225-.808.375-1.269a13.769,13.769,0,0,0,.225-2.5.38.38,0,0,1,.3-.423h9.713c.3,0,.45.115.487.308L86.494,99.823c.113.423,0,.615-.375.615H78.282a.567.567,0,0,1-.6-.423ZM62.832,83.054h9.525c-.225-.808-.525-1.769-.862-2.769-.338-1.038-.675-2.154-1.013-3.308-.375-1.192-.712-2.346-1.088-3.538s-.712-2.308-1.012-3.423c-.3-1.077-.562-2.077-.825-3h-.075a48.2,48.2,0,0,1-1.275,4.962c-.562,1.846-1.125,3.769-1.725,5.692-.525,1.962-1.088,3.769-1.65,5.385Z" transform="translate(-49.59 -56.823)" fill="#ff9a00"/><path d="M162.109,61.554a4.579,4.579,0,0,1-3.338-1.346,5.072,5.072,0,0,1-1.275-3.538,4.585,4.585,0,0,1,1.35-3.423,4.738,4.738,0,0,1,3.338-1.346,4.431,4.431,0,0,1,3.412,1.346,5.39,5.39,0,0,1-.075,6.962A4.35,4.35,0,0,1,162.109,61.554Zm-4.2,33.385V65.323c0-.385.15-.538.487-.538h7.425c.338,0,.488.192.488.538V94.938c0,.423-.15.615-.488.615h-7.35C158.1,95.554,157.909,95.323,157.909,94.938Z" transform="translate(-117.03 -51.9)" fill="#ff9a00"/></g></svg>