<svg xmlns="http://www.w3.org/2000/svg" width="35" height="40" viewBox="0 0 35 40"><g transform="translate(-31.504)"><path d="M113.338,254.726c-.2-.667-.4-1.5-.56-2.167h-.033c-.165.667-.33,1.517-.511,2.167l-.659,2.384h2.453Z" transform="translate(-74.327 -234.218)" fill="#fff"/><path d="M256.75,251.641a4.227,4.227,0,0,0-1.038.1v3.317a3.808,3.808,0,0,0,.84.067c1.334,0,2.157-.683,2.157-1.834C258.709,252.257,258,251.641,256.75,251.641Z" transform="translate(-208.121 -233.366)" fill="#fff"/><path d="M64.289,14.308H63.34V9.673a.688.688,0,0,0-.008-.088.775.775,0,0,0-.184-.508L55.528.268,55.522.263a.76.76,0,0,0-.154-.131C55.351.12,55.334.111,55.317.1a.805.805,0,0,0-.153-.065L55.122.022A.776.776,0,0,0,54.944,0H36.218a1.561,1.561,0,0,0-1.55,1.569V14.307h-.949A2.229,2.229,0,0,0,31.5,16.549V28.208a2.229,2.229,0,0,0,2.215,2.242h.949v7.981A1.561,1.561,0,0,0,36.218,40H61.79a1.561,1.561,0,0,0,1.55-1.569V30.45h.949A2.229,2.229,0,0,0,66.5,28.209V16.55A2.229,2.229,0,0,0,64.289,14.308ZM36.218,1.569H54.17V9.594a.78.78,0,0,0,.775.784H61.79v3.929H36.218ZM53.075,19.858a3.617,3.617,0,0,1-1.02,2.667,5.11,5.11,0,0,1-3.607,1.184,6.318,6.318,0,0,1-.856-.05v4.017H45.105V16.591a20.37,20.37,0,0,1,3.392-.233,5.282,5.282,0,0,1,3.393.9A3.3,3.3,0,0,1,53.075,19.858ZM36.1,27.675H33.5l3.392-11.234H40.18l3.442,11.234h-2.7l-.856-2.883H36.887ZM61.79,38.006H36.218V30.45H61.79Zm-.957-10.332-2.718-4.85-.955,1.183v3.667H54.674V16.441H57.16v4.967h.049c.247-.433.51-.833.758-1.233l2.52-3.734h3.079l-3.673,4.784,3.87,6.45h-2.93Z" transform="translate(0)" fill="#fff"/></g></svg>