<svg xmlns="http://www.w3.org/2000/svg" width="288.333" height="203.283" viewBox="0 0 288.333 203.283"><g transform="translate(-231 -282.358)"><g transform="translate(231 282.358)"><g transform="translate(0 0)"><path d="M7.483,0H280.835a7.7,7.7,0,0,1,5.3,2.073,6.915,6.915,0,0,1,2.2,5.023V18.528H0V7.1A7.3,7.3,0,0,1,7.483,0Z" transform="translate(0 0)" fill="#7d8488"/><path d="M0,37H288.333V214.659a7.3,7.3,0,0,1-7.483,7.1H7.483A7.3,7.3,0,0,1,0,214.659Z" transform="translate(0 -18.472)" fill="#7d8488"/><path d="M3.58,37H288.037V214.424a5.84,5.84,0,0,1-5.988,5.679H9.558a5.839,5.839,0,0,1-5.978-5.679Z" transform="translate(-1.689 -18.472)" fill="#009fe3"/><ellipse cx="3.607" cy="3.42" rx="3.607" ry="3.42" transform="translate(9.02 5.834)" fill="#fbb03b"/><ellipse cx="3.607" cy="3.42" rx="3.607" ry="3.42" transform="translate(19.317 5.834)" fill="#6fb353"/><ellipse cx="3.607" cy="3.42" rx="3.607" ry="3.42" transform="translate(30.317 5.834)" fill="#c1272d"/></g></g><rect width="17.943" height="70.851" rx="8.972" transform="translate(388.057 333.149)" fill="#fff" stroke="#fff" stroke-miterlimit="10" stroke-width="0.5"/><rect width="17.943" height="49.381" rx="8.972" transform="translate(365.235 343.884)" fill="#fff" stroke="#fff" stroke-miterlimit="10" stroke-width="0.5"/><rect width="17.943" height="32.205" rx="8.972" transform="translate(342.413 353.086)" fill="#fff" stroke="#fff" stroke-miterlimit="10" stroke-width="0.5"/><text transform="translate(322.333 430)" fill="#fff" font-size="20" font-family="ArialRoundedMTBold, Arial Rounded MT"><tspan x="0" y="0">Apprender</tspan></text></g></svg>