<svg xmlns="http://www.w3.org/2000/svg" width="60" height="60" viewBox="0 0 60 60"><path d="M65.753,41.8c-4.672,0-5.323,4.664-5.323,4.664h9.936S70.425,41.8,65.753,41.8Z" transform="translate(-21.858 -15.119)" fill="#fff"/><path d="M28.463,49.1H19.658v8.084h8.4c1.263-.035,3.6-.431,3.6-3.927C31.652,49.064,28.463,49.1,28.463,49.1Z" transform="translate(-7.11 -17.761)" fill="#fff"/><path d="M30.6,34.371c0-3.147-2.14-3.147-2.14-3.147h-8.8v6.749h8.259C29.344,37.974,30.6,37.518,30.6,34.371Z" transform="translate(-7.11 -11.294)" fill="#fff"/><path d="M56.809,0H3.191A3.191,3.191,0,0,0,0,3.191V56.809A3.191,3.191,0,0,0,3.191,60H56.809A3.191,3.191,0,0,0,60,56.809V3.191A3.191,3.191,0,0,0,56.809,0ZM37.27,16.337H49.749v3.725H37.27ZM30.961,35.876c0,9.232-9.608,8.927-9.608,8.927H5.613V14.555h15.74c4.783,0,8.559,2.641,8.559,8.053S25.3,28.365,25.3,28.365C31.381,28.365,30.961,35.876,30.961,35.876Zm23.345-.495H38.63c0,5.62,5.323,5.265,5.323,5.265,5.028,0,4.851-3.254,4.851-3.254h5.323c0,8.636-10.351,8.045-10.351,8.045-12.421,0-11.623-11.564-11.623-11.564s-.01-11.621,11.623-11.621C56.021,22.25,54.306,35.381,54.306,35.381Z" fill="#fff"/></svg>