<svg xmlns="http://www.w3.org/2000/svg" width="40" height="40" viewBox="0 0 40 40"><path d="M63.979,41.8a3.607,3.607,0,0,0-3.549,3.109h6.624A3,3,0,0,0,63.979,41.8Z" transform="translate(-34.715 -24.012)" fill="#586165"/><path d="M25.528,49.1h-5.87v5.389h5.6c.842-.023,2.4-.288,2.4-2.618C27.654,49.078,25.528,49.1,25.528,49.1Z" transform="translate(-11.293 -28.209)" fill="#586165"/><path d="M26.954,33.322c0-2.1-1.426-2.1-1.426-2.1h-5.87v4.5h5.506C26.115,35.724,26.954,35.42,26.954,33.322Z" transform="translate(-11.293 -17.937)" fill="#586165"/><path d="M37.872,0H2.128A2.128,2.128,0,0,0,0,2.128V37.872A2.128,2.128,0,0,0,2.128,40H37.872A2.127,2.127,0,0,0,40,37.872V2.128A2.127,2.127,0,0,0,37.872,0ZM24.846,10.891h8.32v2.483h-8.32ZM20.64,23.917c0,6.154-6.406,5.951-6.406,5.951H3.742V9.7H14.235c3.189,0,5.706,1.76,5.706,5.369a3.5,3.5,0,0,1-3.077,3.837C20.921,18.91,20.64,23.917,20.64,23.917Zm15.563-.33H25.754A3.281,3.281,0,0,0,29.3,27.1c3.352,0,3.234-2.169,3.234-2.169h3.549c0,5.757-6.9,5.363-6.9,5.363-8.281,0-7.749-7.709-7.749-7.709s-.007-7.748,7.749-7.748C37.347,14.834,36.2,23.587,36.2,23.587Z" fill="#586165"/></svg>