<svg xmlns="http://www.w3.org/2000/svg" xmlns:xlink="http://www.w3.org/1999/xlink" width="35" height="40" viewBox="0 0 35 40"><defs><clipPath id="a"><path d="M33.484,8.85,19.016.366a3.316,3.316,0,0,0-3.031,0L1.516,8.85A3.425,3.425,0,0,0,0,11.516V28.483a3.379,3.379,0,0,0,1.516,2.666l14.469,8.484a3.316,3.316,0,0,0,3.031,0l14.469-8.484A3.316,3.316,0,0,0,35,28.483V11.516A3.5,3.5,0,0,0,33.484,8.85Z" transform="translate(0 0.001)"/></clipPath><linearGradient id="b" x1="0.342" y1="0.303" x2="0.826" y2="0.908" gradientUnits="objectBoundingBox"><stop offset="0" stop-color="#3b009b"/><stop offset="1" stop-color="#390086"/></linearGradient><linearGradient id="c" x1="0.279" y1="0.356" x2="0.544" y2="0.89" gradientUnits="objectBoundingBox"><stop offset="0" stop-color="#340084"/><stop offset="1" stop-color="#290064"/></linearGradient><linearGradient id="d" x1="0.29" y1="0.168" x2="0.561" y2="0.597" gradientUnits="objectBoundingBox"><stop offset="0" stop-color="#a47ede"/><stop offset="1" stop-color="#9866d3"/></linearGradient></defs><g transform="translate(0 0.001)"><g transform="translate(0 -0.001)" clip-path="url(#a)"><rect width="20.575" height="21.367" transform="translate(17.123 9.726)" fill="url(#b)"/><path d="M10.088,224.19l-26.479-15.56h-13.52v25.76h40Z" transform="translate(27.61 -192.331)" fill="url(#c)"/><path d="M-29.911,18.269l40-23.507v-9.275h-40Z" transform="translate(27.61 13.379)" fill="url(#d)"/></g><path d="M75.827,116.419a11.653,11.653,0,0,1,21.77-5.928l-5.049,2.967c-3.048-5.12-10.616-3.289-10.888,2.961a5.82,5.82,0,0,0,10.888,2.96l5.049,2.967C91.8,132.571,76.12,128.892,75.827,116.419Z" transform="translate(-69.994 -96.42)" fill="#fff"/><g transform="translate(23.732 16.64)"><path d="M317.9,213h.962l-.657,6.445h-.98Z" transform="translate(-316.553 -213)" fill="#fff"/><path d="M344.675,213h.962l-.657,6.445H344Z" transform="translate(-341.269 -213)" fill="#fff"/><rect width="4.808" height="0.943" transform="translate(0.269 1.531)" fill="#fff"/><rect width="4.808" height="0.943" transform="translate(0 3.828)" fill="#fff"/></g></g></svg>