<svg xmlns="http://www.w3.org/2000/svg" width="162" height="296.933" viewBox="0 0 162 296.933"><g transform="translate(-231 -235.533)"><rect width="160.009" height="296.933" rx="16" transform="translate(231 235.533)" fill="#515b60"/><rect width="149.371" height="280.12" rx="12" transform="translate(236.333 244.321)" fill="#fff"/><rect width="40.891" height="12.549" rx="6" transform="translate(291.003 238.546)" fill="#515b60"/><rect width="6.214" height="27.587" rx="2.69" transform="translate(386.786 290.215)" fill="#515b60"/><rect width="6.214" height="27.587" rx="2.69" transform="translate(386.786 320.139)" fill="#515b60"/><g transform="translate(274 336)"><g transform="translate(0 0)"><ellipse cx="16.122" cy="16.835" rx="16.122" ry="16.835" transform="translate(19.513 25.252)" fill="#263f44"/><ellipse cx="8.698" cy="9.082" rx="8.698" ry="9.082" transform="translate(52.605 51.835)" fill="#263f44"/><path d="M129.288,66.016a3.824,3.824,0,0,1-5.211,1.435l-.184-.109a4.2,4.2,0,0,1-1.225-5.648,3.824,3.824,0,0,1,5.211-1.435l.184.109A4.2,4.2,0,0,1,129.288,66.016Z" transform="translate(-68.659 -33.615)" fill="#263f44"/><ellipse cx="5.941" cy="6.204" rx="5.941" ry="6.204" transform="translate(0 42.971)" fill="#263f44"/><rect width="2.122" height="27.912" transform="translate(34.366 7.529)" fill="#263f44"/><path d="M97.54,109.029l1.251-1.789L120.373,123.7l-1.251,1.807Z" transform="translate(-54.866 -60.322)" fill="#263f44"/><path d="M32.091,97.14l.481,2.157L6.541,105.623l-.481-2.157Z" transform="translate(-3.409 -54.641)" fill="#263f44"/><path d="M74.274,79.009,73.5,76.948l24.881-10.2.774,2.061Z" transform="translate(-41.344 -37.547)" fill="#263f44"/><ellipse cx="13.151" cy="13.733" rx="13.151" ry="13.733" transform="translate(22.483 28.354)" fill="#fff"/><ellipse cx="9.756" cy="10.189" rx="9.756" ry="10.189" transform="translate(25.878 31.898)" fill="#263f44"/><path d="M72.72,80a7.094,7.094,0,1,1-6.79,7.088A6.96,6.96,0,0,1,72.72,80Z" transform="translate(-37.086 -45)" fill="#263f44"/><ellipse cx="7" cy="7.311" rx="7" ry="7.311" transform="translate(28.424)" fill="#263f44"/></g></g><text transform="translate(241 430)" fill="#263f44" font-size="18" font-family="OCRAExtended, OCR A"><tspan x="0" y="0">Covid monitor</tspan></text></g></svg>