<svg xmlns="http://www.w3.org/2000/svg" width="70" height="90" viewBox="0 0 70 90"><g transform="translate(-209.633 -276.362)"><g transform="translate(209.633 276.362)"><path d="M144.633,100.62l-6.377,65.074-28.666,7.239L81,165.7l-6.37-65.084Z" transform="translate(-74.633 -82.933)" fill="#264de4"/><path d="M279.163,186.5l5.45-55.609H256v61.458Z" transform="translate(-221 -107.885)" fill="#2965f1"/><path d="M150.31,268.217l.785,7.982h19.611v-7.982Z" transform="translate(-135.706 -221.069)" fill="#ebebeb"/><path d="M164.106,176.3H142.132l.8,7.982h21.177Z" transform="translate(-129.106 -145.314)" fill="#ebebeb"/><path d="M175.628,353.4v-8.3l-.038.009-9.76-2.4-.624-6.366h-8.8l1.228,12.533,17.951,4.539Z" transform="translate(-140.628 -277.212)" fill="#ebebeb"/><path d="M160,0h10.614V4.043h-6.175V8.086h6.175v4.043H160Z" transform="translate(-143.526)" fill="#fff"/><path d="M226,0h10.614V3.516h-6.175v.7h6.175V12.3H226V8.613h6.175v-.7H226Z" transform="translate(-196.789)" fill="#fff"/><path d="M292,0h10.614V3.516h-6.175v.7h6.175V12.3H292V8.613h6.175v-.7H292Z" transform="translate(-250.053)" fill="#fff"/><path d="M266.634,200.444,265.617,210.8l-9.774,2.4v8.3l17.965-4.535.132-1.349L276,194.6l.214-2.143L277.8,176.3H255.843v7.982h12.348l-.8,8.174H255.843v7.982Z" transform="translate(-220.873 -145.314)" fill="#fff"/></g></g></svg>