<svg xmlns="http://www.w3.org/2000/svg" width="80" height="80" viewBox="0 0 80 80"><g transform="translate(-394 -3811)"><g transform="translate(199.367 3539.638)"><g transform="translate(209.633 276.362)"><path d="M124.633,100.62l-4.555,50.613L99.6,156.863l-20.419-5.622-4.55-50.621Z" transform="translate(-74.633 -86.863)" fill="#264de4"/><path d="M272.545,174.145l3.893-43.251H256v47.8Z" transform="translate(-231 -112.998)" fill="#2965f1"/><path d="M150.31,268.217l.561,6.208h14.008v-6.208Z" transform="translate(-139.879 -231.547)" fill="#ebebeb"/><path d="M157.828,176.3h-15.7l.569,6.209h15.127Z" transform="translate(-132.828 -152.201)" fill="#ebebeb"/><path d="M170.137,349.6v-6.459l-.027.007-6.971-1.867-.446-4.952h-6.284l.877,9.748,12.822,3.53Z" transform="translate(-145.137 -290.35)" fill="#ebebeb"/><path d="M160,0h7.581V3.145H163.17V6.289h4.411V9.434H160Z" transform="translate(-148.233)" fill="#fff"/><path d="M226,0h7.581V2.734H229.17v.547h4.411V9.57H226V6.7h4.411V6.152H226Z" transform="translate(-205.135)" fill="#fff"/><path d="M292,0h7.581V2.734H295.17v.547h4.411V9.57H292V6.7h4.411V6.152H292Z" transform="translate(-262.038)" fill="#fff"/><path d="M263.551,195.079l-.727,8.052L255.843,205v6.459l12.832-3.527.094-1.049,1.471-16.345.153-1.667,1.13-12.566h-15.68v6.209h8.82l-.57,6.358h-8.251v6.208Z" transform="translate(-230.865 -152.201)" fill="#fff"/></g></g><g transform="translate(394 3811)" fill="none" stroke="#fff" stroke-width="1" opacity="0"><rect width="80" height="80" stroke="none"/><rect x="0.5" y="0.5" width="79" height="79" fill="none"/></g></g></svg>