<svg xmlns="http://www.w3.org/2000/svg" width="30" height="40" viewBox="0 0 30 40"><g transform="translate(-209.633 -276.362)"><g transform="translate(209.633 276.362)"><path d="M104.633,100.62,101.9,129.542l-12.285,3.217-12.251-3.213-2.73-28.926Z" transform="translate(-74.633 -92.759)" fill="#264de4"/><path d="M265.927,155.609l2.336-24.715H256v27.315Z" transform="translate(-241 -120.668)" fill="#2965f1"/><path d="M150.31,268.217l.337,3.548h8.4v-3.548Z" transform="translate(-144.051 -247.263)" fill="#ebebeb"/><path d="M151.549,176.3h-9.417l.341,3.548h9.076Z" transform="translate(-136.549 -162.531)" fill="#ebebeb"/><path d="M164.646,343.916v-3.691l-.016,0-4.183-1.067-.267-2.829h-3.77l.526,5.57,7.693,2.017Z" transform="translate(-149.646 -310.057)" fill="#ebebeb"/><path d="M160,0h4.549V1.8H161.9v1.8h2.647v1.8H160Z" transform="translate(-152.94)" fill="#fff"/><path d="M226,0h4.549V1.563H227.9v.313h2.647V5.469H226V3.828h2.647V3.516H226Z" transform="translate(-213.481)" fill="#fff"/><path d="M292,0h4.549V1.563H293.9v.313h2.647V5.469H292V3.828h2.647V3.516H292Z" transform="translate(-274.023)" fill="#fff"/><path d="M260.468,187.033l-.436,4.6-4.189,1.068v3.691l7.7-2.016.056-.6.883-9.34.092-.953.678-7.181h-9.408v3.548h5.292l-.342,3.633h-4.95v3.548Z" transform="translate(-240.856 -162.531)" fill="#fff"/></g></g></svg>