<svg xmlns="http://www.w3.org/2000/svg" width="242" height="270" viewBox="0 0 242 270"><g transform="translate(12 -0.266)"><g transform="translate(-12 0.266)"><rect width="175" height="259" rx="12" fill="#7d8488"/><rect width="161" height="238" rx="8" transform="translate(7 12)" fill="#515b60"/><rect width="102.534" height="172.401" rx="8" transform="translate(138.19 97.599)" fill="#7d8488"/><rect width="95.674" height="162.64" rx="6" transform="translate(141.608 102.701)" fill="#515b60"/><rect width="26.203" height="7.286" rx="3.643" transform="translate(176.64 98.928)" fill="#7d8488"/><ellipse cx="1.612" cy="1.648" rx="1.612" ry="1.648" transform="translate(142.411 3.64)" fill="#a8adaf"/><rect width="6.836" height="26.984" rx="3.33" transform="translate(170.272 29.896)" fill="#7d8488"/><rect width="3.982" height="16.017" rx="1.991" transform="translate(238.018 129.347)" fill="#7d8488"/><rect width="3.982" height="16.017" rx="1.991" transform="translate(238.018 146.721)" fill="#7d8488"/><rect width="6.836" height="15.726" rx="3.33" transform="translate(170.272 59.164)" fill="#7d8488"/><path d="M162.728,191.65l-6.158-.769A29.55,29.55,0,0,0,153.836,184l3.828-5.05a2.139,2.139,0,0,0-.16-2.673l-6.334-6.593a1.961,1.961,0,0,0-2.586-.169l-4.865,3.984a26.728,26.728,0,0,0-6.613-2.842l-.741-6.407a2.022,2.022,0,0,0-1.925-1.776h-8.983a2.011,2.011,0,0,0-1.925,1.776l-.741,6.407a26.557,26.557,0,0,0-6.613,2.842l-4.876-3.972a1.928,1.928,0,0,0-2.575.151l-6.346,6.593a2.133,2.133,0,0,0-.148,2.685l3.828,5.05a28.487,28.487,0,0,0-2.734,6.884l-6.158.757a2.048,2.048,0,0,0-1.709,2.015v9.319a2.053,2.053,0,0,0,1.709,2l6.158.769a29.284,29.284,0,0,0,2.734,6.855l-3.828,5.067a2.139,2.139,0,0,0,.16,2.673l6.334,6.587a1.944,1.944,0,0,0,2.575.169l4.876-3.984a26.424,26.424,0,0,0,6.613,2.842l.741,6.407a2.017,2.017,0,0,0,1.925,1.776h8.972a2.017,2.017,0,0,0,1.925-1.776l.741-6.407a26.461,26.461,0,0,0,6.613-2.842l4.876,3.972a1.928,1.928,0,0,0,2.575-.151l6.346-6.587a2.139,2.139,0,0,0,.148-2.685l-3.828-5.056a29.139,29.139,0,0,0,2.734-6.873l6.158-.769a2.041,2.041,0,0,0,1.709-2v-9.313a2.03,2.03,0,0,0-1.709-2Zm-32.782,24.567a17.5,17.5,0,0,1-16.377-10.86,18.208,18.208,0,0,1,3.62-19.612,17.239,17.239,0,0,1,19.121-4.01,17.916,17.916,0,0,1,10.878,16.572,17.586,17.586,0,0,1-17.243,17.91Zm0,0" transform="translate(-42.174 -68.96)" fill="#263238"/><path d="M338.644,296.447l-4.249-.5a18.6,18.6,0,0,0-1.885-4.479l2.637-3.285a1.326,1.326,0,0,0-.114-1.747l-4.369-4.287a1.417,1.417,0,0,0-1.783-.111l-3.355,2.592a19.047,19.047,0,0,0-4.557-1.846l-.513-4.159a1.365,1.365,0,0,0-1.327-1.165h-6.2a1.36,1.36,0,0,0-1.327,1.165l-.513,4.159a18.919,18.919,0,0,0-4.557,1.846l-3.367-2.586a1.389,1.389,0,0,0-1.777.1l-4.381,4.287a1.326,1.326,0,0,0-.1,1.747l2.637,3.285a17.927,17.927,0,0,0-1.886,4.479l-4.249.489a1.357,1.357,0,0,0-1.179,1.31V303.8a1.363,1.363,0,0,0,1.179,1.3l4.249.5a18.429,18.429,0,0,0,1.886,4.461l-2.637,3.3a1.332,1.332,0,0,0,.114,1.747l4.369,4.287a1.4,1.4,0,0,0,1.777.111l3.367-2.592a18.825,18.825,0,0,0,4.557,1.846l.513,4.159a1.365,1.365,0,0,0,1.327,1.165h6.192a1.366,1.366,0,0,0,1.327-1.165l.513-4.159a18.834,18.834,0,0,0,4.557-1.846l3.366,2.586a1.389,1.389,0,0,0,1.777-.1l4.38-4.287a1.326,1.326,0,0,0,.1-1.747l-2.637-3.285a18.338,18.338,0,0,0,1.885-4.467l4.249-.5a1.351,1.351,0,0,0,1.179-1.3v-6.063A1.351,1.351,0,0,0,338.644,296.447Zm-22.62,15.976a11.651,11.651,0,1,1,11.9-11.649A11.792,11.792,0,0,1,316.024,312.424Zm0,0" transform="translate(-126.857 -116.976)" fill="#263238"/></g></g></svg>