<svg xmlns="http://www.w3.org/2000/svg" width="539.333" height="352.283" viewBox="0 0 539.333 352.283"><g transform="translate(-413 -2508.05)"><g transform="translate(413 2508.05)"><g transform="translate(0 0)"><path d="M10.666,0H400.311a10.807,10.807,0,0,1,7.557,3.038A10.271,10.271,0,0,1,411,10.4V27.156H0V10.4A10.536,10.536,0,0,1,10.666,0Z" transform="translate(0 0)" fill="#7d8488"/><path d="M0,37H411V297.393a10.536,10.536,0,0,1-10.666,10.4H10.666A10.536,10.536,0,0,1,0,297.393Z" transform="translate(0 -9.844)" fill="#7d8488"/><path d="M3.58,37H409.055V297.048a8.432,8.432,0,0,1-8.536,8.323H12.1a8.431,8.431,0,0,1-8.521-8.323Z" transform="translate(-0.885 -9.844)" fill="#515b60"/><ellipse cx="5.141" cy="5.013" rx="5.141" ry="5.013" transform="translate(12.857 8.551)" fill="#fbb03b"/><ellipse cx="5.141" cy="5.013" rx="5.141" ry="5.013" transform="translate(27.535 8.551)" fill="#6fb353"/><ellipse cx="5.141" cy="5.013" rx="5.141" ry="5.013" transform="translate(43.215 8.551)" fill="#c1272d"/><ellipse cx="53.347" cy="52.016" rx="53.347" ry="52.016" transform="translate(156.195 106.505)" fill="#7d8488" stroke="#263238" stroke-miterlimit="10" stroke-width="10"/><ellipse cx="24.035" cy="52.016" rx="24.035" ry="52.016" transform="translate(185.507 106.505)" fill="#7d8488" stroke="#263238" stroke-miterlimit="10" stroke-width="10"/><line y1="0.668" x2="100.379" transform="translate(159.229 140.531)" fill="#7d8488" stroke="#263238" stroke-miterlimit="10" stroke-width="10"/><line x2="101.817" y2="0.037" transform="translate(158.626 174.08)" fill="#7d8488" stroke="#263238" stroke-miterlimit="10" stroke-width="10"/></g></g><g transform="translate(719 2591)"><rect width="170" height="259" rx="13" fill="#7d8488"/><rect width="150" height="235" rx="5.25" transform="translate(10 12)" fill="#515b60"/><rect width="98.418" height="171.266" rx="9" transform="translate(133.69 98.067)" fill="#7d8488"/><rect width="91.31" height="161.569" rx="6" transform="translate(136.971 103.136)" fill="#515b60"/><rect width="25.151" height="7.238" rx="3.619" transform="translate(170.597 100.382)" fill="#7d8488"/><ellipse cx="1.547" cy="1.637" rx="1.547" ry="1.637" transform="translate(137.742 4.727)" fill="#a8adaf"/><rect width="6.561" height="26.807" rx="3.281" transform="translate(164.484 30.811)" fill="#7d8488"/><rect width="3.822" height="15.912" rx="1.911" transform="translate(229.511 129.607)" fill="#7d8488"/><rect width="3.822" height="15.912" rx="1.911" transform="translate(229.511 146.866)" fill="#7d8488"/><rect width="6.561" height="15.622" rx="3.281" transform="translate(164.484 59.885)" fill="#7d8488"/><path d="M160.028,191.458l-5.911-.764a29.965,29.965,0,0,0-2.624-6.839l3.674-5.016a2.182,2.182,0,0,0-.153-2.656l-6.08-6.55a1.835,1.835,0,0,0-2.482-.168l-4.669,3.958a25.206,25.206,0,0,0-6.348-2.824l-.711-6.365a1.969,1.969,0,0,0-1.848-1.765h-8.623a1.958,1.958,0,0,0-1.848,1.765l-.711,6.365a25.047,25.047,0,0,0-6.348,2.824l-4.68-3.946a1.8,1.8,0,0,0-2.471.15l-6.091,6.55a2.176,2.176,0,0,0-.142,2.667l3.674,5.016a28.887,28.887,0,0,0-2.624,6.839l-5.911.752a2.015,2.015,0,0,0-1.64,2v9.258A2.019,2.019,0,0,0,97.1,204.7l5.911.764a29.691,29.691,0,0,0,2.624,6.81l-3.674,5.034a2.182,2.182,0,0,0,.153,2.656l6.08,6.544a1.82,1.82,0,0,0,2.471.168l4.68-3.958a24.919,24.919,0,0,0,6.348,2.824l.711,6.365a1.963,1.963,0,0,0,1.848,1.765h8.612a1.963,1.963,0,0,0,1.848-1.765l.711-6.365a24.952,24.952,0,0,0,6.348-2.824l4.68,3.946a1.8,1.8,0,0,0,2.471-.15l6.091-6.544a2.182,2.182,0,0,0,.142-2.667l-3.674-5.022a29.545,29.545,0,0,0,2.624-6.828l5.911-.764a2.008,2.008,0,0,0,1.64-1.99v-9.252a2,2,0,0,0-1.64-1.985Zm-31.466,24.405a16.8,16.8,0,0,1-15.719-10.789,18.564,18.564,0,0,1,3.475-19.483,16.151,16.151,0,0,1,18.354-3.983,17.826,17.826,0,0,1,10.441,16.463c.073,9.75-7.337,17.716-16.551,17.792Zm0,0" transform="translate(-43.266 -68.465)" fill="#263238"/><path d="M336.781,296.322l-4.079-.5a18.827,18.827,0,0,0-1.81-4.449l2.531-3.263a1.352,1.352,0,0,0-.109-1.736l-4.194-4.258a1.325,1.325,0,0,0-1.711-.11l-3.22,2.575a17.936,17.936,0,0,0-4.374-1.834l-.492-4.131a1.327,1.327,0,0,0-1.274-1.157H312.1a1.321,1.321,0,0,0-1.274,1.157l-.492,4.131a17.817,17.817,0,0,0-4.374,1.834l-3.231-2.569a1.3,1.3,0,0,0-1.706.1l-4.2,4.259a1.352,1.352,0,0,0-.1,1.736l2.532,3.263a18.154,18.154,0,0,0-1.81,4.449l-4.079.486a1.332,1.332,0,0,0-1.132,1.3v6.023a1.337,1.337,0,0,0,1.132,1.29l4.079.5a18.655,18.655,0,0,0,1.81,4.432l-2.532,3.275a1.358,1.358,0,0,0,.109,1.736l4.194,4.258a1.309,1.309,0,0,0,1.706.11l3.231-2.575a17.728,17.728,0,0,0,4.374,1.834l.492,4.131a1.326,1.326,0,0,0,1.274,1.157h5.943a1.327,1.327,0,0,0,1.274-1.157l.492-4.131a17.734,17.734,0,0,0,4.374-1.834l3.231,2.569a1.3,1.3,0,0,0,1.706-.1l4.2-4.259a1.352,1.352,0,0,0,.1-1.736l-2.532-3.263a18.564,18.564,0,0,0,1.81-4.438l4.079-.5a1.326,1.326,0,0,0,1.132-1.3v-6.023A1.325,1.325,0,0,0,336.781,296.322Zm-21.712,15.871a11.573,11.573,0,1,1,11.422-11.572A11.514,11.514,0,0,1,315.069,312.193Zm0,0" transform="translate(-132.448 -116.921)" fill="#263238"/></g></g></svg>