<svg xmlns="http://www.w3.org/2000/svg" width="60" height="60" viewBox="0 0 60 60"><path d="M34.124,29.475A133.743,133.743,0,0,0,26.5,17.6,20.906,20.906,0,0,0,15.075,31.985h.2A78.972,78.972,0,0,0,34.124,29.475Z" transform="translate(-5.453 -6.365)" fill="#fff"/><path d="M43.414,52.626C31.993,56.6,27.67,64.385,27.074,65.552A20.834,20.834,0,0,0,47.846,68.27a87.068,87.068,0,0,0-4.409-15.652Z" transform="translate(-9.793 -19.032)" fill="#fff"/><path d="M58.072,19.6a20.831,20.831,0,0,0-18.439-4.635A112.549,112.549,0,0,1,47.3,26.995C54.339,24.333,57.491,20.4,58.072,19.6Z" transform="translate(-14.335 -5.219)" fill="#fff"/><path d="M36.611,45.146c.229-.073.461-.142.694-.208-.5-1.114-1.032-2.229-1.594-3.329a78.035,78.035,0,0,1-20.823,2.963c-.239,0-.422,0-.546,0-.005.172-.01.343-.01.514a20.721,20.721,0,0,0,5.249,13.8C20.462,57.423,26.192,48.513,36.611,45.146Z" transform="translate(-5.184 -15.05)" fill="#fff"/><path d="M56.809,0H3.191A3.191,3.191,0,0,0,0,3.191V56.809A3.191,3.191,0,0,0,3.191,60H56.809A3.191,3.191,0,0,0,60,56.809V3.191A3.191,3.191,0,0,0,56.809,0ZM30,54.648A24.648,24.648,0,1,1,54.68,30,24.691,24.691,0,0,1,30,54.648Z" fill="#fff"/><path d="M59.238,50.838a91.2,91.2,0,0,1,4,14.621A20.862,20.862,0,0,0,72,51.718a30.975,30.975,0,0,0-8.558-1.194A27.179,27.179,0,0,0,59.238,50.838Z" transform="translate(-21.427 -18.275)" fill="#fff"/><path d="M54.352,34.734c.467.961.918,1.938,1.337,2.922.143.333.28.664.416,1a39.132,39.132,0,0,1,4.753-.276,51.759,51.759,0,0,1,9.646.932,20.705,20.705,0,0,0-4.607-12.7C65.169,27.556,61.647,31.728,54.352,34.734Z" transform="translate(-19.659 -9.626)" fill="#fff"/></svg>