<svg xmlns="http://www.w3.org/2000/svg" width="40" height="40" viewBox="0 0 40 40"><path d="M27.774,25.516A89.162,89.162,0,0,0,22.689,17.6a13.937,13.937,0,0,0-7.614,9.591h.136A52.648,52.648,0,0,0,27.774,25.516Z" transform="translate(-8.66 -10.109)" fill="#586165"/><path d="M37.967,52.623c-7.614,2.649-10.5,7.84-10.893,8.618a13.889,13.889,0,0,0,13.848,1.811,58.045,58.045,0,0,0-2.939-10.434Z" transform="translate(-15.553 -30.227)" fill="#586165"/><path d="M51.926,17.877a13.887,13.887,0,0,0-12.293-3.09,75.033,75.033,0,0,1,5.114,8.019A15.879,15.879,0,0,0,51.926,17.877Z" transform="translate(-22.768 -8.289)" fill="#586165"/><path d="M29.185,43.967c.153-.049.308-.095.463-.139-.331-.743-.688-1.486-1.063-2.219A52.023,52.023,0,0,1,14.7,43.584c-.16,0-.281,0-.364,0,0,.114-.006.229-.006.343a13.814,13.814,0,0,0,3.5,9.2C18.419,52.152,22.238,46.212,29.185,43.967Z" transform="translate(-8.233 -23.903)" fill="#586165"/><path d="M37.872,0H2.128A2.128,2.128,0,0,0,0,2.128V37.872A2.128,2.128,0,0,0,2.128,40H37.872A2.127,2.127,0,0,0,40,37.872V2.128A2.127,2.127,0,0,0,37.872,0ZM20,36.432A16.432,16.432,0,1,1,36.454,20,16.461,16.461,0,0,1,20,36.432Z" fill="#586165"/><path d="M59.238,50.733A60.8,60.8,0,0,1,61.9,60.481a13.908,13.908,0,0,0,5.84-9.16,20.65,20.65,0,0,0-5.706-.8A18.119,18.119,0,0,0,59.238,50.733Z" transform="translate(-34.03 -29.024)" fill="#586165"/><path d="M54.352,32.027c.311.641.612,1.292.891,1.948.1.222.187.443.277.663a26.089,26.089,0,0,1,3.169-.184,34.506,34.506,0,0,1,6.431.621,13.8,13.8,0,0,0-3.071-8.463A18.927,18.927,0,0,1,54.352,32.027Z" transform="translate(-31.223 -15.288)" fill="#586165"/></svg>