<svg xmlns="http://www.w3.org/2000/svg" xmlns:xlink="http://www.w3.org/1999/xlink" width="30" height="40" viewBox="0 0 30 40"><defs><linearGradient id="a" x1="-0.035" y1="0.17" x2="1.008" y2="0.929" gradientUnits="objectBoundingBox"><stop offset="0" stop-color="#fff" stop-opacity="0.102"/><stop offset="0.14" stop-color="#fff" stop-opacity="0.078"/><stop offset="0.61" stop-color="#fff" stop-opacity="0.02"/><stop offset="1" stop-color="#fff" stop-opacity="0"/></linearGradient></defs><g transform="translate(-23.781 -5.97)"><path d="M23.833,38.243l5.074-31.5a.923.923,0,0,1,.769-.756.946.946,0,0,1,.983.468l5.247,9.5L38,12.083a.951.951,0,0,1,1.658,0l14.16,26.16H23.833Z" transform="translate(-0.036)" fill="#ffa000"/><path d="M41.362,48.676,35.9,38.647l-12.071,22.3Z" transform="translate(-0.036 -22.705)" fill="#f57c00"/><path d="M53.817,56.869,49.931,33.534a.919.919,0,0,0-.639-.714.956.956,0,0,0-.947.223L23.834,56.869,37.4,64.25a2.886,2.886,0,0,0,2.741,0l13.68-7.381Z" transform="translate(-0.036 -18.626)" fill="#ffca28"/><path d="M49.9,14.91a.919.919,0,0,0-.639-.714.956.956,0,0,0-.947.223l-4.865,4.733-3.826-7.067a.951.951,0,0,0-1.658,0l-2.092,3.864-5.247-9.5a.946.946,0,0,0-.984-.467.922.922,0,0,0-.768.758L23.8,38.245h-.016l.016.018.134.064L48.3,14.651a.957.957,0,0,1,.949-.225.918.918,0,0,1,.64.716l3.853,23.126.037-.023L49.9,14.91ZM23.842,38.2,28.871,6.965a.923.923,0,0,1,.768-.758.947.947,0,0,1,.984.467l5.247,9.5,2.092-3.864a.951.951,0,0,1,1.658,0l3.748,6.917L23.842,38.2Z" transform="translate(0 -0.001)" fill="rgba(255,255,255,0.2)"/><path d="M40.137,118.4a2.886,2.886,0,0,1-2.741,0l-13.53-7.36-.033.2L37.4,118.621a2.886,2.886,0,0,0,2.741,0l13.68-7.378-.035-.209L40.137,118.4Z" transform="translate(-0.036 -72.999)" fill="#a52714" opacity="0.2"/><path d="M50.006,14.934a.917.917,0,0,0-.637-.714.952.952,0,0,0-.944.223l-4.848,4.73L39.766,12.11a.946.946,0,0,0-1.653,0l-2.084,3.862L30.8,6.48a.942.942,0,0,0-.981-.467.921.921,0,0,0-.765.758L24,38.259l13.515,7.375a2.868,2.868,0,0,0,2.731,0l13.632-7.375L50.006,14.934Z" transform="translate(-0.15 -0.021)" fill="url(#a)"/></g></svg>