<svg xmlns="http://www.w3.org/2000/svg" width="80" height="80" viewBox="0 0 80 80"><g transform="translate(-164 -4231)"><g transform="translate(176.445 4243.442)"><path d="M51.612,25.331,29.781,3.5a3.22,3.22,0,0,0-4.554,0L20.695,8.035l5.75,5.75a3.824,3.824,0,0,1,4.842,4.876L36.83,24.2a3.828,3.828,0,1,1-2.295,2.161l-5.169-5.169V34.8a3.825,3.825,0,1,1-3.15-.112V20.956a3.833,3.833,0,0,1-2.08-5.025l-5.668-5.669L3.5,25.229a3.222,3.222,0,0,0,0,4.555l21.831,21.83a3.22,3.22,0,0,0,4.554,0L51.612,29.886A3.222,3.222,0,0,0,51.612,25.331Z" transform="translate(0 0)" fill="#f05133"/></g><g transform="translate(164 4231)" fill="none" stroke="#fff" stroke-width="1" opacity="0"><rect width="80" height="80" stroke="none"/><rect x="0.5" y="0.5" width="79" height="79" fill="none"/></g></g></svg>