<svg xmlns="http://www.w3.org/2000/svg" width="90" height="90" viewBox="0 0 90 90"><g transform="translate(-2.555 -2.558)"><path d="M90.857,43.549,51.563,4.255a5.8,5.8,0,0,0-8.2,0l-8.159,8.161,10.35,10.35a6.884,6.884,0,0,1,8.716,8.776l9.977,9.976a6.89,6.89,0,1,1-4.13,3.889l-9.3-9.3V60.588a6.885,6.885,0,1,1-5.67-.2V35.675A6.9,6.9,0,0,1,41.4,26.629L31.2,16.424,4.252,43.367a5.8,5.8,0,0,0,0,8.2l39.3,39.294a5.8,5.8,0,0,0,8.2,0L90.857,51.748A5.8,5.8,0,0,0,90.857,43.549Z" transform="translate(0 0)" fill="#f05133"/></g></svg>