<svg xmlns="http://www.w3.org/2000/svg" width="42" height="40" viewBox="0 0 42 40"><g transform="translate(0 -5.365)"><path d="M39.183,15.576a20.667,20.667,0,0,0-7.642-7.461A20.925,20.925,0,0,0,21,5.365a20.927,20.927,0,0,0-10.541,2.75,20.665,20.665,0,0,0-7.643,7.461A19.69,19.69,0,0,0,0,25.866,19.608,19.608,0,0,0,4.006,37.918a20.544,20.544,0,0,0,10.349,7.408,1.247,1.247,0,0,0,1.094-.187,1.033,1.033,0,0,0,.355-.8q0-.08-.014-1.441t-.014-2.375l-.629.106a8.214,8.214,0,0,1-1.518.093,11.834,11.834,0,0,1-1.9-.187,4.3,4.3,0,0,1-1.832-.8,3.391,3.391,0,0,1-1.2-1.641l-.273-.614a6.644,6.644,0,0,0-.861-1.361A3.279,3.279,0,0,0,6.371,35.1l-.191-.134a1.99,1.99,0,0,1-.355-.321,1.46,1.46,0,0,1-.246-.374q-.082-.187.137-.308a1.812,1.812,0,0,1,.793-.119l.547.08a4.035,4.035,0,0,1,1.354.641,4.352,4.352,0,0,1,1.326,1.388,4.746,4.746,0,0,0,1.518,1.669,3.273,3.273,0,0,0,1.791.574,7.96,7.96,0,0,0,1.559-.133,5.53,5.53,0,0,0,1.23-.4,4.286,4.286,0,0,1,1.34-2.75,19.136,19.136,0,0,1-2.8-.481,11.312,11.312,0,0,1-2.57-1.042A7.323,7.323,0,0,1,9.6,31.6a8.519,8.519,0,0,1-1.435-2.8,13.034,13.034,0,0,1-.56-4,7.684,7.684,0,0,1,2.16-5.5,7.019,7.019,0,0,1,.191-5.445,3.915,3.915,0,0,1,2.352.36,16.628,16.628,0,0,1,2.283,1.028q.725.426,1.162.721a20.211,20.211,0,0,1,10.5,0l1.039-.64A14.874,14.874,0,0,1,29.8,14.147a3.663,3.663,0,0,1,2.216-.293,6.952,6.952,0,0,1,.218,5.445,7.685,7.685,0,0,1,2.16,5.5,13.18,13.18,0,0,1-.561,4.017,8.19,8.19,0,0,1-1.449,2.8,7.608,7.608,0,0,1-2.215,1.775,11.334,11.334,0,0,1-2.57,1.041,19.116,19.116,0,0,1-2.8.481,4.693,4.693,0,0,1,1.421,3.79v5.632a1.051,1.051,0,0,0,.342.8,1.21,1.21,0,0,0,1.08.187,20.541,20.541,0,0,0,10.35-7.407A19.612,19.612,0,0,0,42,25.865,19.706,19.706,0,0,0,39.183,15.576Z" fill="#fbfbfb"/></g></svg>