<svg xmlns="http://www.w3.org/2000/svg" width="60" height="60" viewBox="0 0 60 60"><path d="M154.666,352.522q-.626.117-.547.586t.7.312q.626-.156.547-.547Q155.291,352.444,154.666,352.522Z" transform="translate(-133.025 -304.28)" fill="#fff"/><path d="M137.955,354.819c-.417,0-.625.142-.625.429q0,.508.664.429.625,0,.625-.429Q138.619,354.741,137.955,354.819Z" transform="translate(-118.541 -306.264)" fill="#fff"/><path d="M119.442,352.034q-.156.43.508.586.586.233.742-.235.117-.429-.508-.625C119.793,351.657,119.546,351.747,119.442,352.034Z" transform="translate(-103.074 -303.598)" fill="#fff"/><path d="M56.7,3.3A10.836,10.836,0,0,0,48.75,0H11.25A10.838,10.838,0,0,0,3.3,3.3,10.837,10.837,0,0,0,0,11.25v37.5A10.835,10.835,0,0,0,3.3,56.7,10.837,10.837,0,0,0,11.25,60H20a10.565,10.565,0,0,0,1.289-.058,1.512,1.512,0,0,0,.859-.509,1.82,1.82,0,0,0,.43-1.308q0-.117-.02-2.657t-.02-4.024l-.9.156a11.5,11.5,0,0,1-2.168.137,16.683,16.683,0,0,1-2.715-.273,6.086,6.086,0,0,1-2.617-1.171,4.958,4.958,0,0,1-1.718-2.4l-.391-.9A9.758,9.758,0,0,0,10.8,45a4.715,4.715,0,0,0-1.7-1.485l-.274-.2a2.872,2.872,0,0,1-.508-.469,2.17,2.17,0,0,1-.351-.547q-.117-.274.2-.45A2.54,2.54,0,0,1,9.3,41.679l.781.117a5.7,5.7,0,0,1,1.934.937,6.3,6.3,0,0,1,1.894,2.031,6.884,6.884,0,0,0,2.168,2.441,4.6,4.6,0,0,0,2.558.84,11.1,11.1,0,0,0,2.227-.195,7.777,7.777,0,0,0,1.758-.587,6.331,6.331,0,0,1,1.914-4.024,26.75,26.75,0,0,1-4-.7,15.958,15.958,0,0,1-3.672-1.524A10.513,10.513,0,0,1,13.71,38.4a12.583,12.583,0,0,1-2.051-4.1,19.509,19.509,0,0,1-.8-5.86,11.394,11.394,0,0,1,3.086-8.047,10.5,10.5,0,0,1,.273-7.969,5.473,5.473,0,0,1,3.359.527,23.558,23.558,0,0,1,3.262,1.5q1.036.624,1.66,1.055a28.2,28.2,0,0,1,15,0l1.484-.937a21.014,21.014,0,0,1,3.594-1.719,5.117,5.117,0,0,1,3.164-.43,10.4,10.4,0,0,1,.312,7.968,11.4,11.4,0,0,1,3.087,8.047,19.7,19.7,0,0,1-.8,5.879,12.068,12.068,0,0,1-2.07,4.1,10.923,10.923,0,0,1-3.164,2.6,15.936,15.936,0,0,1-3.672,1.523,26.73,26.73,0,0,1-4,.7q2.03,1.757,2.03,5.546v9.336a2.514,2.514,0,0,0,.195,1.074,1.079,1.079,0,0,0,.625.567,3.462,3.462,0,0,0,.762.195A8.77,8.77,0,0,0,40,60h8.75A11.27,11.27,0,0,0,60,48.748V11.25A10.838,10.838,0,0,0,56.7,3.3Z" fill="#fff"/><path d="M86.039,318.6q-.273.195.078.625.391.39.625.117.273-.195-.079-.625Q86.274,318.367,86.039,318.6Z" transform="translate(-74.164 -274.929)" fill="#fff"/><path d="M77.2,311.283q-.117.274.274.469a.333.333,0,0,0,.508-.078q.117-.274-.274-.47Q77.321,311.087,77.2,311.283Z" transform="translate(-66.618 -268.588)" fill="#fff"/><path d="M94.536,329.725q-.352.195,0,.7t.664.273q.352-.274,0-.742C94.992,329.621,94.77,329.542,94.536,329.725Z" transform="translate(-81.45 -284.53)" fill="#fff"/><path d="M104.732,342.225c-.235.209-.183.455.156.743q.468.468.781.116.313-.312-.156-.742Q105.045,341.875,104.732,342.225Z" transform="translate(-90.279 -295.273)" fill="#fff"/></svg>