<svg xmlns="http://www.w3.org/2000/svg" width="40" height="40" viewBox="0 0 40 40"><path d="M154.481,352.518q-.417.078-.365.391t.469.208q.417-.1.365-.365Q154.9,352.466,154.481,352.518Z" transform="translate(-140.053 -320.357)" fill="#fff"/><path d="M137.747,354.815c-.278,0-.417.095-.417.286q0,.338.443.286.417,0,.417-.286Q138.189,354.763,137.747,354.815Z" transform="translate(-124.804 -322.445)" fill="#fff"/><path d="M119.432,351.929q-.1.287.338.391.391.156.495-.156.078-.286-.338-.417C119.666,351.678,119.5,351.738,119.432,351.929Z" transform="translate(-108.52 -319.638)" fill="#fff"/><path d="M37.8,2.2A7.224,7.224,0,0,0,32.5,0H7.5A7.225,7.225,0,0,0,2.2,2.2,7.225,7.225,0,0,0,0,7.5v25a7.224,7.224,0,0,0,2.2,5.3A7.224,7.224,0,0,0,7.5,40h5.833a7.043,7.043,0,0,0,.859-.039,1.008,1.008,0,0,0,.573-.339,1.213,1.213,0,0,0,.286-.872q0-.078-.013-1.771T15.025,34.3l-.6.1a7.665,7.665,0,0,1-1.445.091,11.122,11.122,0,0,1-1.81-.182,4.057,4.057,0,0,1-1.745-.781,3.305,3.305,0,0,1-1.146-1.6l-.261-.6A6.505,6.505,0,0,0,7.2,30a3.143,3.143,0,0,0-1.133-.99l-.182-.13a1.915,1.915,0,0,1-.338-.313,1.447,1.447,0,0,1-.234-.365q-.078-.183.13-.3a1.693,1.693,0,0,1,.755-.117l.521.078a3.8,3.8,0,0,1,1.289.625A4.2,4.2,0,0,1,9.27,29.843a4.589,4.589,0,0,0,1.445,1.628,3.064,3.064,0,0,0,1.706.56,7.4,7.4,0,0,0,1.484-.13,5.185,5.185,0,0,0,1.172-.391,4.221,4.221,0,0,1,1.276-2.683,17.833,17.833,0,0,1-2.669-.469,10.638,10.638,0,0,1-2.448-1.016A7.009,7.009,0,0,1,9.14,25.6a8.389,8.389,0,0,1-1.367-2.734,13.006,13.006,0,0,1-.534-3.907A7.6,7.6,0,0,1,9.3,13.592,7,7,0,0,1,9.479,8.28a3.649,3.649,0,0,1,2.24.352,15.705,15.705,0,0,1,2.175,1q.69.416,1.107.7a18.8,18.8,0,0,1,10,0l.99-.625a14.009,14.009,0,0,1,2.4-1.146A3.411,3.411,0,0,1,30.5,8.28a6.932,6.932,0,0,1,.208,5.312,7.6,7.6,0,0,1,2.058,5.365,13.13,13.13,0,0,1-.534,3.919,8.046,8.046,0,0,1-1.38,2.735,7.282,7.282,0,0,1-2.109,1.732,10.624,10.624,0,0,1-2.448,1.015,17.82,17.82,0,0,1-2.669.469,4.638,4.638,0,0,1,1.354,3.7v6.224a1.676,1.676,0,0,0,.13.716.719.719,0,0,0,.417.378,2.308,2.308,0,0,0,.508.13,5.847,5.847,0,0,0,.638.026H32.5A7.513,7.513,0,0,0,40,32.5V7.5A7.225,7.225,0,0,0,37.8,2.2Z" fill="#fff"/><path d="M86,318.57q-.182.13.052.416.261.26.417.078.182-.13-.052-.417Q86.156,318.413,86,318.57Z" transform="translate(-78.083 -289.455)" fill="#fff"/><path d="M77.195,311.243q-.078.183.182.313a.222.222,0,0,0,.338-.052q.078-.183-.182-.313Q77.273,311.112,77.195,311.243Z" transform="translate(-70.137 -282.779)" fill="#fff"/><path d="M94.477,329.693q-.235.13,0,.469t.443.182q.235-.183,0-.495C94.781,329.624,94.633,329.571,94.477,329.693Z" transform="translate(-85.753 -299.563)" fill="#fff"/><path d="M104.684,342.175c-.156.139-.122.3.1.5q.312.312.521.077.209-.208-.1-.494Q104.893,341.942,104.684,342.175Z" transform="translate(-95.049 -310.874)" fill="#fff"/></svg>