<svg xmlns="http://www.w3.org/2000/svg" width="35" height="40" viewBox="0 0 35 40"><g transform="translate(-30 -336.689)"><path d="M104.917,393.376c4.428-2.6,7.814-4.582,8.1-4.736.926-.526,1.881-1.919,0-3-.608-.341-3.878-2.26-8.1-4.736L99.1,387.153Z" transform="translate(-49.102 -30.525)" fill="#ffd400"/><path d="M53.48,401.1,34.9,421.129a2.338,2.338,0,0,0,1.5-.4c1.216-.712,14.123-8.266,22.892-13.4L53.48,401.1Z" transform="translate(-3.482 -44.471)" fill="#f33"/><path d="M53.409,356.629l5.817-6.253s-21.59-12.6-22.892-13.342a2.14,2.14,0,0,0-1.534-.31Z" transform="translate(-3.411)" fill="#48ff48"/><path d="M50,356.705,31.389,336.8c-.752.186-1.389.9-1.389,2.353v35.229c0,1.331.492,2.291,1.418,2.384Z" transform="translate(0 -0.077)" fill="#3bccff"/></g></svg>