<svg xmlns="http://www.w3.org/2000/svg" xmlns:xlink="http://www.w3.org/1999/xlink" width="554.922" height="616.922" viewBox="0 0 554.922 616.922"><defs><linearGradient id="a" x1="-0.173" y1="0.5" x2="1.173" y2="0.5" gradientUnits="objectBoundingBox"><stop offset="0" stop-color="#39b54a"/><stop offset="1" stop-color="lime"/></linearGradient></defs><g transform="translate(-489.291 -464.431)"><rect width="215.735" height="400.165" rx="23" transform="translate(722.248 541.027)" fill="#515b60"/><rect width="203.154" height="377.51" rx="15" transform="translate(728.439 552.867)" fill="#2e393e"/><rect width="55.132" height="13.159" rx="6.58" transform="translate(803.148 546.287)" fill="#515b60"/><rect width="8.38" height="37.177" rx="4.19" transform="translate(932.294 614.717)" fill="#515b60"/><rect width="8.38" height="37.177" rx="4.19" transform="translate(932.294 655.049)" fill="#515b60"/><path d="M6.449,1.151,58.521-.741a4.686,4.686,0,0,1,4.927,4.927L61.556,56.258a5.585,5.585,0,0,1-5.3,5.3L4.186,63.447A4.686,4.686,0,0,1-.741,58.521L1.151,6.449A5.585,5.585,0,0,1,6.449,1.151Z" transform="translate(785.175 640.961) rotate(-45)" fill="url(#a)"/><path d="M1.29.23,11.7-.148a.937.937,0,0,1,.985.985l-.378,10.414a1.117,1.117,0,0,1-1.06,1.06L.837,12.689A.937.937,0,0,1-.148,11.7L.23,1.29A1.117,1.117,0,0,1,1.29.23Z" transform="translate(854.262 473.51) rotate(-45)" fill="#7d8488"/><path d="M1.29.23,11.7-.148a.937.937,0,0,1,.985.985l-.378,10.414a1.117,1.117,0,0,1-1.06,1.06L.837,12.689A.937.937,0,0,1-.148,11.7L.23,1.29A1.117,1.117,0,0,1,1.29.23Z" transform="translate(633.743 655.049) rotate(-45)" fill="url(#a)"/><path d="M1.29.23,11.7-.148a.937.937,0,0,1,.985.985l-.378,10.414a1.117,1.117,0,0,1-1.06,1.06L.837,12.689A.937.937,0,0,1-.148,11.7L.23,1.29A1.117,1.117,0,0,1,1.29.23Z" transform="translate(985.591 651.894) rotate(-45)" fill="url(#a)"/><path d="M1.29.23,11.7-.148a.937.937,0,0,1,.985.985l-.378,10.414a1.117,1.117,0,0,1-1.06,1.06L.837,12.689A.937.937,0,0,1-.148,11.7L.23,1.29A1.117,1.117,0,0,1,1.29.23Z" transform="translate(489.502 791.99) rotate(-45)" fill="url(#a)"/><path d="M1.29.23,11.7-.148a.937.937,0,0,1,.985.985l-.378,10.414a1.117,1.117,0,0,1-1.06,1.06L.837,12.689A.937.937,0,0,1-.148,11.7L.23,1.29A1.117,1.117,0,0,1,1.29.23Z" transform="translate(955.559 829.443) rotate(-45)" fill="#7d8488"/><path d="M1.29.23,11.7-.148a.937.937,0,0,1,.985.985l-.378,10.414a1.117,1.117,0,0,1-1.06,1.06L.837,12.689A.937.937,0,0,1-.148,11.7L.23,1.29A1.117,1.117,0,0,1,1.29.23Z" transform="translate(600.025 1072.274) rotate(-45)" fill="#7d8488"/><path d="M1.29.23,11.7-.148a.937.937,0,0,1,.985.985l-.378,10.414a1.117,1.117,0,0,1-1.06,1.06L.837,12.689A.937.937,0,0,1-.148,11.7L.23,1.29A1.117,1.117,0,0,1,1.29.23Z" transform="translate(1026.266 967.982) rotate(-45)" fill="url(#a)"/><path d="M4.985,1,49.785-.63A2.683,2.683,0,0,1,52.605,2.19l-1.628,44.8A4.227,4.227,0,0,1,46.968,51L3.11,52.593A3.547,3.547,0,0,1-.618,48.864L.975,5.007A4.227,4.227,0,0,1,4.985,1Z" transform="translate(792.764 641.148) rotate(-45)" fill="#2e353a"/><g transform="translate(819.41 623.533)"><path d="M1071.415,743.7v12.026h-3.509V723.911h8.23q4.8,0,7.447,2.485a9.159,9.159,0,0,1,2.642,7.011,9.94,9.94,0,0,1-2.935,7.411,10.817,10.817,0,0,1-7.927,2.885Zm0-16.419V740.33h3.677a7.9,7.9,0,0,0,5.546-1.764,6.442,6.442,0,0,0,1.912-4.982q0-6.3-7.019-6.3Z" transform="translate(-1067.906 -723.911)" fill="#fff"/></g><g transform="translate(833.893 641.222)"><path d="M1100.978,766.841a4.747,4.747,0,0,1-1.963.342q-3.453,0-3.452-3.208v-6.48H1093.3V756h2.259v-2.673l2.1-.567V756h3.311v1.5h-3.311v6.17a2.24,2.24,0,0,0,.449,1.572,1.993,1.993,0,0,0,1.489.47,2.525,2.525,0,0,0,1.373-.364Z" transform="translate(-1093.304 -752.758)" fill="#fff"/></g><rect width="170.706" height="45.236" rx="5" transform="translate(745.361 721.142)" fill="#586165"/><rect width="170.706" height="45.236" rx="5" transform="translate(744.163 777.65)" fill="#586165"/><rect width="170.706" height="45.236" rx="5" transform="translate(745.361 834.159)" fill="#586165"/><path d="M14.173,0H297.15a14.173,14.173,0,0,1,14.173,14.173v8.5a0,0,0,0,1,0,0H0a0,0,0,0,1,0,0v-8.5A14.173,14.173,0,0,1,14.173,0Z" transform="translate(539.72 750.853)" fill="#1c262a" opacity="0.75"/><path d="M0,0H311.323a0,0,0,0,1,0,0V212.09a14.173,14.173,0,0,1-14.173,14.173H14.173A14.173,14.173,0,0,1,0,212.09V0A0,0,0,0,1,0,0Z" transform="translate(539.72 773.522)" fill="#1c262a" opacity="0.62"/><path d="M0,0H307.158a0,0,0,0,1,0,0V212.9a11.339,11.339,0,0,1-11.339,11.339H11.339A11.339,11.339,0,0,1,0,212.9V0A0,0,0,0,1,0,0Z" transform="translate(541.759 773.522)" fill="#13191c" opacity="0.29"/><ellipse cx="3.896" cy="4.19" rx="3.896" ry="4.19" transform="translate(549.458 757.997)" fill="#c1272d"/><ellipse cx="3.896" cy="4.19" rx="3.896" ry="4.19" transform="translate(560.577 757.997)" fill="#fbb03b"/><ellipse cx="3.896" cy="4.19" rx="3.896" ry="4.19" transform="translate(572.456 757.997)" fill="#009245"/><rect width="98.358" height="8.278" transform="translate(560.577 791.99)" fill="#854d7d"/><rect width="60.865" height="8.278" transform="translate(560.577 808.854)" fill="#854d7d"/><rect width="46.615" height="8.278" transform="translate(666.632 791.99)" fill="#4d7285"/><rect width="46.615" height="8.278" transform="translate(661.215 808.854)" fill="#b5b6ac"/><rect width="28.653" height="8.278" transform="translate(627.572 808.854)" fill="#4d7285"/><rect width="111.899" height="8.278" transform="translate(560.577 833.995)" fill="#854d7d"/><rect width="144.687" height="8.278" transform="translate(560.577 967.982)" fill="#854d7d"/><rect width="32.639" height="8.278" transform="translate(560.577 850.859)" fill="#854d7d"/><rect width="68.426" height="8.278" transform="translate(679.034 833.995)" fill="#4d7285"/><rect width="68.426" height="8.278" transform="translate(711.536 967.982)" fill="#4d7285"/><rect width="68.283" height="8.278" transform="translate(661.215 850.859)" fill="#33a86a"/><rect width="57.022" height="8.278" transform="translate(599.203 850.859)" fill="#4d7285"/><rect width="15.776" height="8.278" transform="translate(560.577 867.722)" fill="#854d7d"/><rect width="27.227" height="8.278" transform="translate(642.611 867.722)" fill="#e5c657"/><rect width="57.022" height="8.278" transform="translate(581.245 867.722)" fill="#4d7285"/><rect width="57.022" height="8.278" transform="translate(560.577 901.448)" fill="#6d8afc"/><rect width="57.022" height="8.278" transform="translate(560.577 916.779)" fill="#6d8afc"/><rect width="57.022" height="8.278" transform="translate(560.577 932.109)" fill="#33a86a"/></g></svg>