<svg xmlns="http://www.w3.org/2000/svg" width="288.333" height="203.283" viewBox="0 0 288.333 203.283"><g transform="translate(-231 -282.358)"><g transform="translate(231 282.358)"><g transform="translate(0 0)"><path d="M7.483,0H280.835a7.7,7.7,0,0,1,5.3,2.073,6.915,6.915,0,0,1,2.2,5.023V18.528H0V7.1A7.3,7.3,0,0,1,7.483,0Z" transform="translate(0 0)" fill="#7d8488"/><path d="M0,37H288.333V214.659a7.3,7.3,0,0,1-7.483,7.1H7.483A7.3,7.3,0,0,1,0,214.659Z" transform="translate(0 -18.472)" fill="#7d8488"/><path d="M3.58,37H288.037V214.424a5.84,5.84,0,0,1-5.988,5.679H9.558a5.839,5.839,0,0,1-5.978-5.679Z" transform="translate(-1.689 -18.472)" fill="#fff"/><ellipse cx="3.607" cy="3.42" rx="3.607" ry="3.42" transform="translate(9.02 5.834)" fill="#fbb03b"/><ellipse cx="3.607" cy="3.42" rx="3.607" ry="3.42" transform="translate(19.317 5.834)" fill="#6fb353"/><ellipse cx="3.607" cy="3.42" rx="3.607" ry="3.42" transform="translate(30.317 5.834)" fill="#c1272d"/></g></g><g transform="translate(325 323)"><g transform="translate(0)"><rect width="33.336" height="86.963" rx="9.23" transform="translate(33.336)" fill="#3cf"/><rect width="28.988" height="100" rx="8.06" transform="translate(0 57.975) rotate(-90)" fill="#3cf"/><rect width="24.958" height="43.538" rx="12.479" transform="translate(36.615 11.074)" fill="#fff"/><path d="M17.73,59.469v-.033c0-6.275,5.818-11.386,13.053-11.406l22.959-.08c7.243,0,13.143,5.045,13.143,11.3v.033c0,6.275-5.818,11.386-13.053,11.406l-22.959.08C23.651,70.809,17.765,65.744,17.73,59.469Z" transform="translate(-5.465 -16.078)" fill="#fff"/><line transform="translate(59.47 62.063)" fill="none"/><path d="M87.5,76.4h0l-15.1.711c9.166,0,16.6,4.573,16.6,10.216l7.8-6.846A13.126,13.126,0,0,1,83.911,67.12l-11.5,9.971" transform="translate(-22.317 -22.505)" fill="#fff"/><path d="M74.574,116.613H53.281c-2.815,0-5.091-1.994-5.091-4.427V88.43h0a29.573,29.573,0,0,1,15.834,4.44,22.309,22.309,0,0,1,5.714,4.972c4.04,4.939,5.375,11.785,5.375,18.811" transform="translate(-14.854 -29.65)" fill="#036"/><path d="M0,65.319V75.383c0,2.446,2.283,4.427,5.091,4.427h8.218C5.956,79.81,0,73.243,0,65.12" transform="translate(0 -21.835)" fill="#036"/><path d="M96.37,0" transform="translate(-29.706)" fill="#036"/><path d="M75,0h9.159c3.106,0,5.631,2.194,5.631,4.892V9.971C89.79,4.46,84.3,0,77.518,0" transform="translate(-23.118)" fill="#036"/><line x2="32" transform="translate(68 29)" fill="none"/><path d="M124.872,43.61H99c0,12.889,13.918,23.484,31.516,23.484V48.522C130.516,45.81,127.985,43.61,124.872,43.61Z" transform="translate(-30.516 -14.622)" fill="#036"/><g transform="translate(0.346 95.518)"><path d="M1.842,144.39v3.623H6.871V144.39H8.255v8.641H6.871V148.97H1.842v4.061H.5V144.39Z" transform="translate(-0.5 -143.931)" fill="#3cf"/><path d="M21.481,151.054c0,2.3-1.909,3.324-3.715,3.324-2.02,0-3.576-1.236-3.576-3.2,0-2.081,1.633-3.324,3.7-3.324A3.282,3.282,0,0,1,21.481,151.054Zm-5.921.066a2.251,2.251,0,0,0,2.413,1.949,2.185,2.185,0,0,0-.117-4.369,2.245,2.245,0,0,0-2.3,2.42Z" transform="translate(-4.72 -145.091)" fill="#3cf"/><path d="M26.811,153.064a4.076,4.076,0,0,0,1.792.452c.989,0,1.453-.412,1.453-.924s-.387-.838-1.384-1.143c-1.342-.4-1.972-1.017-1.972-1.761,0-1,.968-1.828,2.573-1.828a4.293,4.293,0,0,1,1.833.386l-.339.824a3.337,3.337,0,0,0-1.529-.359c-.8,0-1.252.386-1.252.851s.45.744,1.418,1.057c1.294.412,1.958.951,1.958,1.874,0,1.09-1.017,1.861-2.767,1.861a4.946,4.946,0,0,1-2.075-.425Z" transform="translate(-8.521 -145.095)" fill="#3cf"/><path d="M35.972,150.031A20.04,20.04,0,0,0,35.91,148h1.217l.062,1.07h0a3.105,3.105,0,0,1,2.649-1.21,3.171,3.171,0,0,1,2.3.917,2.918,2.918,0,0,1,.86,2.247,3.069,3.069,0,0,1-.927,2.385,3.337,3.337,0,0,1-2.462.939,2.817,2.817,0,0,1-2.255-.964h0v3.383H35.972Zm1.384,1.655a2.138,2.138,0,0,0,.062.465,2.075,2.075,0,0,0,2.034,1.329,2.182,2.182,0,0,0,2.269-2.406,2.076,2.076,0,0,0-.578-1.628,2.257,2.257,0,0,0-1.643-.685,2.113,2.113,0,0,0-2.075,1.4,1.566,1.566,0,0,0-.09.465Z" transform="translate(-11.415 -145.092)" fill="#3cf"/><path d="M50.151,145.083c0,.386-.325.665-.865.665a.775.775,0,0,1-.552-.169.716.716,0,0,1-.264-.5.734.734,0,0,1,.268-.528.8.8,0,0,1,.583-.177.774.774,0,0,1,.575.178A.713.713,0,0,1,50.151,145.083Zm-1.508,7.976v-6.222h1.384v6.222Z" transform="translate(-15.287 -143.926)" fill="#3cf"/><path d="M55.193,145.38v1.788h1.944v.864H55.193v3.324c0,.771.263,1.21,1.017,1.21a3.6,3.6,0,0,0,.789-.08l.062.851a3.929,3.929,0,0,1-1.2.153,2.129,2.129,0,0,1-1.467-.479,2.04,2.04,0,0,1-.526-1.622v-3.4H52.71v-.864h1.155v-1.489Z" transform="translate(-16.594 -144.263)" fill="#3cf"/><path d="M65.185,154.221l-.111-.784h-.048a3,3,0,0,1-2.283.924c-1.508,0-2.283-.891-2.283-1.788,0-1.5,1.6-2.326,4.489-2.313v-.126c0-.512-.173-1.442-1.695-1.442a4.286,4.286,0,0,0-1.944.465L61,148.411a5.354,5.354,0,0,1,2.449-.552c2.283,0,2.836,1.329,2.836,2.546v2.326a7.34,7.34,0,0,0,.125,1.489Zm-.2-3.177c-1.48,0-3.161.193-3.161,1.4a1.072,1.072,0,0,0,.387.816,1.166,1.166,0,0,0,.893.261,1.864,1.864,0,0,0,1.805-1.044,1.008,1.008,0,0,0,.076-.359Z" transform="translate(-18.982 -145.095)" fill="#3cf"/><path d="M72.06,143.7h1.384v9.126H72.06Z" transform="translate(-22.558 -143.7)" fill="#3cf"/><path d="M89.09,152.7a7.843,7.843,0,0,1-2.767.412c-2.933,0-5.133-1.542-5.133-4.387,0-2.712,2.207-4.553,5.43-4.553a6.541,6.541,0,0,1,2.47.386l-.325.911a5.735,5.735,0,0,0-2.075-.359c-2.435,0-4.054,1.329-4.054,3.576,0,2.12,1.467,3.483,3.991,3.483a6.3,6.3,0,0,0,2.193-.359Z" transform="translate(-25.372 -143.855)" fill="#3cf"/><path d="M95,143.7h1.384v9.126H95Z" transform="translate(-29.629 -143.7)" fill="#3cf"/><path d="M102.96,144l-1.882,1.841h-.968L101.494,144Zm-2.767,8.914v-6.222h1.384v6.222Z" transform="translate(-31.204 -143.801)" fill="#3cf"/><path d="M105.413,149.679a13.859,13.859,0,0,0-.062-1.682h1.2l.076,1.03h0a2.87,2.87,0,0,1,2.47-1.17,2.566,2.566,0,0,1,1.956.745,2.356,2.356,0,0,1,.679,1.914v3.716h-1.384V150.61a1.615,1.615,0,0,0-1.729-1.841,1.905,1.905,0,0,0-1.819,1.157,1.379,1.379,0,0,0-.09.525v3.742H105.33Z" transform="translate(-32.813 -145.093)" fill="#3cf"/><path d="M119.251,145.083c0,.386-.325.665-.865.665a.775.775,0,0,1-.552-.169.716.716,0,0,1-.264-.5.734.734,0,0,1,.268-.528.8.8,0,0,1,.583-.177.774.774,0,0,1,.575.178.713.713,0,0,1,.255.527Zm-1.508,7.976v-6.222h1.384v6.222Z" transform="translate(-36.586 -143.926)" fill="#3cf"/><path d="M128.129,153.982a5.85,5.85,0,0,1-2.144.359c-2.248,0-3.715-1.276-3.715-3.177s1.57-3.324,4.012-3.324a5.32,5.32,0,0,1,1.882.319l-.311.877a3.667,3.667,0,0,0-1.57-.292,2.481,2.481,0,0,0-2.388,1.044,2.269,2.269,0,0,0-.026,2.52,2.477,2.477,0,0,0,2.365,1.089,4.5,4.5,0,0,0,1.667-.306Z" transform="translate(-38.035 -145.088)" fill="#3cf"/><path d="M139.411,151.054c0,2.3-1.909,3.324-3.715,3.324-2.02,0-3.576-1.236-3.576-3.2,0-2.081,1.633-3.324,3.7-3.324A3.282,3.282,0,0,1,139.411,151.054Zm-5.921.066a2.251,2.251,0,0,0,2.413,1.949,2.185,2.185,0,0,0-.117-4.369A2.245,2.245,0,0,0,133.49,151.12Z" transform="translate(-41.071 -145.091)" fill="#3cf"/></g><g transform="translate(0.436 111.946)"><path d="M10.75,174.147c-.083-1.329-.187-2.991-.173-4.208h-.048c-.394,1.143-.879,2.36-1.467,3.7l-2.075,4.726H5.867l-1.882-4.653a38.716,38.716,0,0,1-1.349-3.789h0c0,1.216-.118,2.852-.221,4.307L2.1,178.415H.63l.809-9.745H3.362l1.985,4.713c.484,1.2.879,2.273,1.176,3.284h.048A32.839,32.839,0,0,1,7.8,173.4l2.075-4.713h1.916l.692,9.745H11.041Z" transform="translate(-0.63 -168.501)" fill="#036"/><path d="M22.39,175.37l-1.211,3.064H19.63l3.957-9.745H25.42l3.971,9.745H27.758l-1.245-3.064Zm3.818-.984-1.141-2.832c-.256-.665-.429-1.216-.6-1.781h0c-.173.578-.36,1.17-.588,1.761l-1.141,2.818Z" transform="translate(-6.487 -168.508)" fill="#036"/><path d="M44.342,177.948a12.725,12.725,0,0,1-3.576.532,6.714,6.714,0,0,1-4.351-1.29,4.57,4.57,0,0,1-1.626-3.629c0-2.9,2.4-5.032,6.3-5.032a8.422,8.422,0,0,1,2.9.445L43.63,170a7.042,7.042,0,0,0-2.573-.419c-2.829,0-4.676,1.476-4.676,3.922s1.778,3.935,4.489,3.935a5.744,5.744,0,0,0,2.006-.259v-2.9H40.51v-1.01h3.832Z" transform="translate(-11.159 -168.453)" fill="#036"/><path d="M53.41,175.37,52.2,178.435H50.65l3.957-9.745h1.819l3.971,9.745H58.778l-1.245-3.064Zm3.818-.984-1.141-2.832c-.256-.665-.429-1.216-.6-1.781h0c-.173.578-.36,1.17-.588,1.761l-1.141,2.818Z" transform="translate(-16.048 -168.508)" fill="#036"/><path d="M67.19,168.69h1.5v8.694h4.974v1.057H67.19Z" transform="translate(-21.147 -168.508)" fill="#036"/><path d="M79,168.69h1.5v8.694h4.974v1.057H79Z" transform="translate(-24.787 -168.508)" fill="#036"/><path d="M92.24,175.37l-1.211,3.064H89.48l3.957-9.745h1.812l3.971,9.745h-1.6L96.37,175.37Zm3.825-.984-1.148-2.832c-.256-.665-.429-1.216-.6-1.781h0c-.173.578-.36,1.17-.588,1.761l-1.141,2.818Z" transform="translate(-28.018 -168.508)" fill="#036"/><path d="M106,178.435V168.69h1.639l3.729,4.932a26.651,26.651,0,0,1,2.075,3.164h.035a36.287,36.287,0,0,1-.173-3.988v-4.081h1.383v9.745h-1.522l-3.694-4.945a29.868,29.868,0,0,1-2.089-3.29h-.055c.083,1.23.125,2.4.125,3.988v4.168Z" transform="translate(-33.11 -168.508)" fill="#036"/><path d="M128.475,173.868h-4.524v3.516h5.043v1.057H122.45V168.69h6.288v1.057h-4.78v3.078h4.524Z" transform="translate(-38.18 -168.508)" fill="#036"/><path d="M134.25,176.78a6.106,6.106,0,0,0,2.691.665c1.536,0,2.435-.665,2.435-1.662s-.623-1.429-2.193-1.941c-1.9-.565-3.071-1.389-3.071-2.765,0-1.516,1.5-2.659,3.763-2.659a6.131,6.131,0,0,1,2.573.479l-.415,1.024a5.352,5.352,0,0,0-2.207-.465c-1.591,0-2.193.8-2.193,1.462,0,.911.692,1.329,2.31,1.881,1.971.665,2.968,1.429,2.968,2.865s-1.328,2.805-4.074,2.805a6.947,6.947,0,0,1-2.968-.625Z" transform="translate(-41.701 -168.416)" fill="#036"/></g></g></g></g></svg>