<svg xmlns="http://www.w3.org/2000/svg" width="70" height="90" viewBox="0 0 70 90"><g transform="translate(-74.6)"><path d="M108.4,0h4.438V4.008h4.09V0h4.438V12.129h-4.438V8.086h-4.052v4.043H108.4m18.831-8.086h-3.917V0h12.291V4.043h-3.936v8.086h-4.438M137.554,0h4.65l2.856,4.271L147.915,0h4.65V12.129h-4.438V6.117l-3.106,4.359-3.106-4.359v6.012h-4.361M154.764,0H159.2V8.121h6.29v4.008H154.764" transform="translate(-27.278)"/><path d="M80.967,165.709,74.6,100.6h70l-6.367,65.074-28.691,7.242" transform="translate(0 -82.916)" fill="#e44d26"/><path d="M256,192.436V131h28.614l-5.46,55.547" transform="translate(-146.4 -107.973)" fill="#f16529"/><path d="M142,176.3h22v7.98H151.609l.81,8.174H164v7.963h-19.6m.386,4.008h8.8l.617,6.381L164,213.2v8.332l-17.982-4.57" transform="translate(-54.396 -145.31)" fill="#ebebeb"/><path d="M277.757,176.3H255.8v7.98h21.147m-.791,8.174H255.8v7.98h10.8l-1.023,10.371L255.8,213.2v8.3l17.944-4.535" transform="translate(-146.239 -145.31)" fill="#fff"/></g></svg>