<svg xmlns="http://www.w3.org/2000/svg" width="30" height="40" viewBox="0 0 30 40"><g transform="translate(-74.6)"><path d="M108.4,0h1.9V1.781h1.753V0h1.9V5.391h-1.9v-1.8h-1.736v1.8H108.4M116.471,1.8h-1.679V0h5.267V1.8h-1.687V5.391h-1.9M120.894,0h1.993l1.224,1.9L125.335,0h1.993V5.391h-1.9V2.719l-1.331,1.938-1.331-1.938V5.391h-1.869M128.27,0h1.9V3.609h2.7V5.391h-4.6" transform="translate(-31.005)" fill="#fff"/><path d="M77.329,129.538,74.6,100.6h30l-2.729,28.922-12.3,3.219" transform="translate(0 -92.741)" fill="#e44d26"/><path d="M256,158.3V131h12.263l-2.34,24.688" transform="translate(-166.4 -120.766)" fill="#f16529"/><path d="M142,176.3h9.427v3.547h-5.309l.347,3.633h4.961v3.539h-8.4m.165,1.781h3.771l.265,2.836,4.2,1.063v3.7l-7.707-2.031" transform="translate(-61.827 -162.527)" fill="#ebebeb"/><path d="M265.21,176.3H255.8v3.547h9.063m-.339,3.633H255.8v3.547h4.631l-.438,4.609L255.8,192.7v3.688l7.69-2.016" transform="translate(-166.217 -162.527)" fill="#fff"/></g></svg>