<svg xmlns="http://www.w3.org/2000/svg" width="80" height="80" viewBox="0 0 80 80"><g transform="translate(-260 -3794)"><rect width="80" height="80" transform="translate(260 3794)" fill="#fff" opacity="0"/><g transform="translate(200.4 3799)"><path d="M108.4,0h3.17V3.117h2.922V0h3.17V9.434h-3.17V6.289H111.6V9.434h-3.2m13.451-6.289h-2.8V0h8.779V3.145h-2.811V9.434h-3.17M129.224,0h3.321l2.04,3.322L136.625,0h3.321V9.434h-3.17V4.758l-2.219,3.391-2.219-3.391V9.434h-3.115M141.517,0h3.17V6.316h4.493V9.434h-7.663" transform="translate(-29.142)" fill="#fff"/><path d="M79.148,151.241,74.6,100.6h50l-4.548,50.613-20.493,5.633" transform="translate(0 -86.846)" fill="#e44d26"/><path d="M256,178.783V131h20.438l-3.9,43.2" transform="translate(-156.4 -113.09)" fill="#f16529"/><path d="M142,176.3h15.711v6.207h-8.848l.579,6.357h8.269v6.193h-14m.276,3.117h6.284l.441,4.963,7,1.859v6.48l-12.845-3.555" transform="translate(-58.111 -152.196)" fill="#ebebeb"/><path d="M271.484,176.3H255.8v6.207h15.1m-.565,6.357H255.8v6.207h7.718l-.73,8.066L255.8,205v6.453l12.817-3.527" transform="translate(-156.228 -152.196)" fill="#fff"/></g></g></svg>