<svg xmlns="http://www.w3.org/2000/svg" width="75.5" height="90" viewBox="0 0 75.5 90"><g transform="translate(0)"><path d="M70.872,267.473s-3.912,2,2.784,2.677c8.112.814,12.258.7,21.2-.791a39.083,39.083,0,0,0,5.632,2.418c-20.04,7.551-45.354-.437-29.614-4.3" transform="translate(-46.557 -197.871)" fill="#5382a1"/><path d="M61.213,229.659s-4.388,2.855,2.313,3.465a93.854,93.854,0,0,0,27.35-1.154,12.425,12.425,0,0,0,4.213,2.258c-24.23,6.229-51.217.491-33.877-4.568" transform="translate(-39.346 -169.911)" fill="#5382a1"/><path d="M133.191,95.565c4.938,5-1.3,9.5-1.3,9.5s12.538-5.69,6.78-12.816C133.3,85.6,129.171,82.3,151.5,70.914c0,0-35.045,7.7-18.307,24.651" transform="translate(-90.68 -52.532)" fill="#e76f00"/><path d="M69.532,293.282s2.895,2.1-3.188,3.719c-11.567,3.081-48.145,4.011-58.306.123-3.653-1.4,3.2-3.336,5.352-3.742a15.73,15.73,0,0,1,3.531-.348c-4.062-2.516-26.256,4.94-11.273,7.075,40.859,5.826,74.482-2.623,63.884-6.826" transform="translate(-0.517 -216.392)" fill="#5382a1"/><path d="M46.23,190.438s-18.606,3.885-6.589,5.3c5.074.6,15.188.462,24.61-.232,7.7-.571,15.431-1.785,15.431-1.785a34.457,34.457,0,0,0-4.679,2.2c-18.894,4.369-55.393,2.336-44.885-2.132a39.39,39.39,0,0,1,16.111-3.348" transform="translate(-20.033 -140.899)" fill="#5382a1"/><path d="M200.59,204.414c19.206-8.774,10.326-17.206,4.128-16.07a15.908,15.908,0,0,0-2.2.519,3.431,3.431,0,0,1,1.641-1.113c12.262-3.79,21.693,11.178-3.958,17.106a1.514,1.514,0,0,0,.386-.442" transform="translate(-141.017 -138.474)" fill="#5382a1"/><path d="M106.265.371S116.9,9.726,96.176,24.111c-16.619,11.539-3.79,18.118-.007,25.635-9.7-7.7-16.82-14.469-12.044-20.774,7.01-9.255,26.431-13.742,22.139-28.6" transform="translate(-58.272 -0.371)" fill="#e76f00"/><path d="M60.912,321.271c18.436,1.038,46.745-.576,47.416-8.245,0,0-1.289,2.907-15.236,5.216a172.168,172.168,0,0,1-46.653.631s2.356,1.715,14.473,2.4" transform="translate(-32.828 -231.554)" fill="#5382a1"/></g></svg>