<svg xmlns="http://www.w3.org/2000/svg" width="30" height="40" viewBox="0 0 30 40"><path d="M67.907,267.473s-1.554.889,1.106,1.19a23.661,23.661,0,0,0,8.423-.351,14.751,14.751,0,0,0,2.238,1.075c-7.963,3.356-18.022-.194-11.767-1.913" transform="translate(-58.245 -236.539)" fill="#5382a1"/><path d="M57.893,229.659s-1.743,1.269.919,1.54a33.4,33.4,0,0,0,10.868-.513,4.833,4.833,0,0,0,1.674,1c-9.628,2.768-20.351.218-13.461-2.03" transform="translate(-49.204 -203.104)" fill="#5382a1"/><path d="M130.461,81.87c1.962,2.221-.515,4.22-.515,4.22s4.982-2.529,2.694-5.7c-2.137-2.953-3.776-4.421,5.1-9.48,0,0-13.925,3.42-7.274,10.956" transform="translate(-113.569 -62.744)" fill="#e76f00"/><path d="M27.94,292.859s1.15.932-1.267,1.653c-4.6,1.369-19.13,1.783-23.168.055-1.451-.621,1.27-1.483,2.127-1.663a5.608,5.608,0,0,1,1.4-.155c-1.614-1.118-10.433,2.2-4.479,3.144,16.236,2.589,29.6-1.166,25.384-3.034" transform="translate(-0.517 -258.686)" fill="#5382a1"/><path d="M35.4,190.43s-7.393,1.727-2.618,2.354a56.459,56.459,0,0,0,9.779-.1c3.06-.254,6.132-.793,6.132-.793a13.06,13.06,0,0,0-1.859.978c-7.507,1.942-22.01,1.038-17.835-.948a14.191,14.191,0,0,1,6.4-1.488" transform="translate(-24.987 -168.413)" fill="#5382a1"/><path d="M200.357,194.819c7.632-3.9,4.1-7.647,1.64-7.142a5.779,5.779,0,0,0-.873.231,1.385,1.385,0,0,1,.652-.495c4.872-1.685,8.62,4.968-1.573,7.6a.653.653,0,0,0,.153-.2" transform="translate(-176.686 -165.512)" fill="#5382a1"/><path d="M92,.371S96.231,4.529,88,10.922c-6.6,5.128-1.506,8.053,0,11.393-3.855-3.42-6.684-6.431-4.786-9.233C85.992,8.97,93.709,6.976,92,.371" transform="translate(-72.934 -0.371)" fill="#e76f00"/><path d="M52.19,316.69c7.325.461,18.574-.256,18.841-3.664,0,0-.512,1.292-6.054,2.318a61.236,61.236,0,0,1-18.537.28s.936.762,5.751,1.066" transform="translate(-41.031 -276.816)" fill="#5382a1"/></svg>