<svg xmlns="http://www.w3.org/2000/svg" width="95" height="112" viewBox="0 0 95 112"><g transform="translate(0)"><path d="M72.143,267.473s-4.922,2.489,3.5,3.331c10.207,1.012,15.424.867,26.672-.984a49.457,49.457,0,0,0,7.087,3.009c-25.216,9.4-57.068-.544-37.263-5.356" transform="translate(-41.548 -180.857)" fill="#5382a1"/><path d="M62.636,229.659s-5.521,3.553,2.911,4.312c10.9.978,19.514,1.058,34.415-1.437a15.679,15.679,0,0,0,5.3,2.81c-30.488,7.752-64.445.611-42.627-5.685" transform="translate(-35.122 -155.305)" fill="#5382a1"/><path d="M134.36,101.591c6.213,6.22-1.632,11.817-1.632,11.817s15.776-7.081,8.531-15.949C134.492,89.189,129.3,85.08,157.4,70.914c0,0-44.1,9.576-23.035,30.677" transform="translate(-80.87 -48.038)" fill="#e76f00"/><path d="M87.357,293.468S91,296.078,83.346,298.1c-14.555,3.834-60.579,4.992-73.365.153-4.6-1.738,4.023-4.151,6.734-4.657a20.008,20.008,0,0,1,4.443-.434c-5.111-3.131-33.037,6.147-14.185,8.8,51.412,7.25,93.72-3.264,80.384-8.495" transform="translate(-0.517 -197.782)" fill="#5382a1"/><path d="M50.872,190.442s-23.411,4.835-8.29,6.59c6.384.743,19.111.575,30.966-.289,9.689-.71,19.417-2.221,19.417-2.221a43.589,43.589,0,0,0-5.888,2.74c-23.773,5.437-69.7,2.908-56.478-2.654a50.052,50.052,0,0,1,20.273-4.166" transform="translate(-17.909 -128.793)" fill="#5382a1"/><path d="M200.69,208.636c24.167-10.919,12.993-21.412,5.194-20a20.2,20.2,0,0,0-2.764.646,4.315,4.315,0,0,1,2.065-1.385c15.429-4.717,27.3,13.911-4.981,21.288a1.891,1.891,0,0,0,.486-.55" transform="translate(-125.73 -126.577)" fill="#5382a1"/><path d="M112.377.371s13.384,11.641-12.694,29.542c-20.912,14.36-4.769,22.547-.009,31.9C87.467,52.239,78.509,43.809,84.519,35.963c8.821-11.517,33.258-17.1,27.858-35.592" transform="translate(-51.988 -0.371)" fill="#e76f00"/><path d="M64.65,323.286c23.2,1.291,58.819-.716,59.662-10.26,0,0-1.622,3.618-19.171,6.491-19.8,3.24-44.219,2.861-58.7.785,0,0,2.965,2.134,18.211,2.984" transform="translate(-29.313 -211.638)" fill="#5382a1"/></g></svg>