<svg xmlns="http://www.w3.org/2000/svg" xmlns:xlink="http://www.w3.org/1999/xlink" width="70.001" height="70.001" viewBox="0 0 70.001 70.001">
  <defs>
    <linearGradient id="linear-gradient" x1="-0.173" y1="0.5" x2="1.173" y2="0.5" gradientUnits="objectBoundingBox">
      <stop offset="0" stop-color="#39b54a"/>
      <stop offset="1" stop-color="lime"/>
    </linearGradient>
  </defs>
  <g id="logo-portafolio" transform="translate(20.672 1.783)">
    <g id="Capa_1" data-name="Capa 1" transform="translate(-20.68 -1.782)">
      <path id="Trazado_264" data-name="Trazado 264" d="M5.074,1,45.618.007A3.754,3.754,0,0,1,49.5,3.89l-.989,40.544a4.224,4.224,0,0,1-4.078,4.078L3.89,49.5A3.754,3.754,0,0,1,.007,45.618L1,5.074A4.224,4.224,0,0,1,5.074,1Z" transform="translate(0 35) rotate(-45)" fill="url(#linear-gradient)"/>
      <path id="Trazado_265" data-name="Trazado 265" d="M.985.985,41.16,0,40.18,40.18,0,41.16Z" transform="translate(5.78 34.875) rotate(-45)" fill="#263238"/>
      <path id="Trazado_262" data-name="Trazado 262" d="M285.867,241.339v9.26H283.1V226.11h6.489a8.363,8.363,0,0,1,5.87,1.913,6.958,6.958,0,0,1,2.083,5.4,7.557,7.557,0,0,1-2.314,5.7,8.634,8.634,0,0,1-6.25,2.216Zm0-12.638v10.046h2.9a6.315,6.315,0,0,0,4.372-1.357,4.913,4.913,0,0,0,1.507-3.834q0-4.85-5.533-4.85Z" transform="translate(-256.058 -204.524)" fill="#fff"/>
      <path id="Trazado_263" data-name="Trazado 263" d="M424.449,390.619a3.807,3.807,0,0,1-1.547.266q-2.721,0-2.721-2.469v-4.99H418.4v-1.152h1.78v-2.058l1.659-.436v2.494h2.61v1.152h-2.61v4.749a1.7,1.7,0,0,0,.354,1.21,1.594,1.594,0,0,0,1.174.362,2.025,2.025,0,0,0,1.083-.28Z" transform="translate(-379.942 -344.579)" fill="#fff"/>
    </g>
  </g>
</svg>
