<svg xmlns="http://www.w3.org/2000/svg" width="70" height="40" viewBox="0 0 70 40"><g transform="translate(-67.5 -156.6)"><path d="M118.156,157.98a1.406,1.406,0,0,1,1.63-1.2h9.567a2.878,2.878,0,0,0-.729.9,15.366,15.366,0,0,0-1.131,2.892c-.863,3.021-1.457,6.127-2.052,9.234-.268,1.414-.518,2.828-.748,4.221-.729,4.606-1.476,9.191-2.416,13.755a53.664,53.664,0,0,1-1.591,6.235,6.749,6.749,0,0,1-1.246,2.357c-.134.15-.288.321-.5.3h-8.436c-.575-.021-1.131.043-1.706-.021a3.669,3.669,0,0,0,.939-1.2,24.946,24.946,0,0,0,1.419-4.264c.594-2.335,1.055-4.713,1.515-7.07.288-1.564.614-3.107.805-4.671.23-1.735.575-3.471.844-5.206.441-2.55.9-5.12,1.419-7.649.422-1.971.844-3.964,1.4-5.892A15.306,15.306,0,0,1,118.156,157.98Z" transform="translate(-33.382 -0.138)" fill="#eb7077"/><path d="M117.995,157.921h0a2.651,2.651,0,0,1,1.055-1.157v0a1.3,1.3,0,0,1,.288-.021h9.855V156.7a2.879,2.879,0,0,0-.729.9h0a15.366,15.366,0,0,0-1.131,2.892h0c-.863,3.021-1.457,6.127-2.051,9.234-.268,1.414-.518,2.828-.748,4.221-.729,4.606-1.476,9.191-2.416,13.755a53.667,53.667,0,0,1-1.591,6.235h0a6.75,6.75,0,0,1-1.246,2.357c-.134.129-.268.3-.441.3h-8.474v0h-1.035a3.433,3.433,0,0,1-.671-.043v.043a3.433,3.433,0,0,0,.939-1.2,24.947,24.947,0,0,0,1.419-4.264c.594-2.335,1.074-4.713,1.515-7.07.288-1.564.614-3.107.805-4.671.23-1.735.575-3.471.844-5.206.441-2.55.9-5.121,1.419-7.649.422-1.971.844-3.964,1.4-5.892a17.662,17.662,0,0,1,1-2.721h0a14.77,14.77,0,0,0-1.035,2.721c-.575,1.928-1,3.9-1.4,5.892-.518,2.528-.978,5.1-1.419,7.649-.288,1.735-.633,3.471-.844,5.206-.211,1.564-.537,3.107-.805,4.671-.441,2.378-.92,4.735-1.515,7.07a24.948,24.948,0,0,1-1.419,4.264,3.639,3.639,0,0,1-.939,1.2l-.019.021h.038c.23.021.46.043.671.043h9.471v0h.038c.192,0,.326-.171.46-.3A6.448,6.448,0,0,0,120.526,194h0a53.666,53.666,0,0,0,1.591-6.235c.939-4.563,1.687-9.148,2.416-13.755.23-1.414.5-2.828.748-4.221.575-3.107,1.189-6.213,2.051-9.234h0a14.817,14.817,0,0,1,1.131-2.892h0a3.957,3.957,0,0,1,.729-.9l.019-.021h-9.874a1.3,1.3,0,0,0-.288.021h0a2.444,2.444,0,0,0-1.055,1.157Z" transform="translate(-33.22 -0.079)" fill="#eb7077"/><path d="M196.359,156.9h.729a3.04,3.04,0,0,1,1.246,1.457,17.221,17.221,0,0,1,.863,2.25c.844,2.914,1.419,5.913,1.994,8.913.5,2.678.959,5.378,1.4,8.077.038.15,0,.343.153.386-.614,3.557-1.208,7.113-1.975,10.627a49.778,49.778,0,0,1-1.476,5.613,6.531,6.531,0,0,1-1.4,2.571c-.46.107-.786-.279-1.054-.621a8.834,8.834,0,0,1-1.055-2.314,74.559,74.559,0,0,1-2.128-8.956c-.441-2.357-.844-4.713-1.265-7.07-.192-1.2-.441-2.378-.575-3.578a.6.6,0,0,0-.115-.086c.23-1.414.5-2.828.748-4.221.575-3.107,1.189-6.213,2.051-9.234a14.817,14.817,0,0,1,1.131-2.892A2.737,2.737,0,0,1,196.359,156.9Z" transform="translate(-100.387 -0.236)" fill="#f6a2ad"/><path d="M196.278,156.664h0a3.871,3.871,0,0,0,.5,0h.249v0a3.039,3.039,0,0,1,1.246,1.457h0a17.215,17.215,0,0,1,.863,2.25h0c.844,2.914,1.419,5.913,1.994,8.913.5,2.678.959,5.378,1.4,8.077h0c.019.064.019.15.038.236.019.064.058.15.134.15v-.021h-.019c-.614,3.557-1.208,7.113-1.975,10.627a49.784,49.784,0,0,1-1.476,5.613,6.532,6.532,0,0,1-1.4,2.571v0a.429.429,0,0,1-.153.021c-.364,0-.652-.321-.9-.643h.019a9.505,9.505,0,0,1-1.055-2.314,74.556,74.556,0,0,1-2.128-8.956c-.441-2.357-.844-4.713-1.265-7.07h0c-.192-1.2-.441-2.378-.575-3.578h0a.6.6,0,0,0-.115-.086v.021h.019c.23-1.414.5-2.828.748-4.221.575-3.107,1.189-6.213,2.051-9.234h0a14.817,14.817,0,0,1,1.131-2.892h0a2.556,2.556,0,0,1,.671-.921h0a3.235,3.235,0,0,0-.748.9h0a15.366,15.366,0,0,0-1.131,2.892h0c-.863,3.021-1.457,6.127-2.051,9.234-.268,1.414-.518,2.828-.748,4.221h0a.6.6,0,0,0,.115.086v-.021H191.7c.134,1.2.4,2.378.575,3.578h0c.422,2.357.805,4.735,1.265,7.07a74.555,74.555,0,0,0,2.128,8.956,8.884,8.884,0,0,0,1.074,2.314h0c.249.3.537.643.92.643a.478.478,0,0,0,.173-.021h0a6.083,6.083,0,0,0,1.4-2.571,48.154,48.154,0,0,0,1.476-5.613c.767-3.514,1.361-7.07,1.975-10.627v-.021h-.019q-.115-.032-.115-.129c-.019-.064-.019-.15-.038-.236h0c-.441-2.7-.9-5.4-1.4-8.077-.575-3-1.15-6-1.994-8.913h0a22.27,22.27,0,0,0-.863-2.25h0a3,3,0,0,0-1.246-1.478h-.249a3.673,3.673,0,0,1-.479.064Z" transform="translate(-100.307)" fill="#f6a2ad"/><path d="M233.354,158.493a2.917,2.917,0,0,1,1.342-1.628c3.355-.021,6.71,0,10.066,0a5.232,5.232,0,0,0-.844,1.136,22.014,22.014,0,0,0-1.419,4.178c-1,3.921-1.706,7.927-2.358,11.955q-.92,5.945-2.032,11.848c-.383,1.971-.786,3.964-1.3,5.913a21.381,21.381,0,0,1-1.208,3.557,3.008,3.008,0,0,1-1.055,1.328c-3.2.021-6.4,0-9.606,0a4.5,4.5,0,0,1-.537-.021,6.387,6.387,0,0,0,1.4-2.571,51.024,51.024,0,0,0,1.476-5.613c.767-3.514,1.361-7.07,1.975-10.627.729-4.585,1.5-9.148,2.473-13.669A29.458,29.458,0,0,1,233.354,158.493Z" transform="translate(-126.818 -0.201)" fill="#eb7077"/><path d="M232.95,158.371h0a2.874,2.874,0,0,1,1.342-1.607v0c1.668,0,3.355-.021,5.023-.021h5.023v-.021h0a5.313,5.313,0,0,0-.863,1.135h0a22.016,22.016,0,0,0-1.419,4.178h0c-1,3.921-1.706,7.927-2.358,11.955q-.92,5.945-2.032,11.848c-.383,1.971-.786,3.964-1.3,5.913a20.512,20.512,0,0,1-1.208,3.535,2.882,2.882,0,0,1-1.055,1.328v0c-1.131,0-2.282.021-3.413.021h-6.212a4.5,4.5,0,0,1-.537-.021v.043a6.082,6.082,0,0,0,1.4-2.571,48.149,48.149,0,0,0,1.476-5.613c.767-3.514,1.361-7.07,1.975-10.627.729-4.585,1.5-9.148,2.473-13.669a37.67,37.67,0,0,1,1.687-5.806h0a30.757,30.757,0,0,0-1.687,5.763c-.978,4.521-1.745,9.106-2.492,13.669-.614,3.556-1.208,7.113-1.975,10.627a49.786,49.786,0,0,1-1.476,5.613,6.531,6.531,0,0,1-1.4,2.571l-.019.021h.038a4.5,4.5,0,0,0,.537.021h6.212c1.131,0,2.282,0,3.413-.021h0a3.034,3.034,0,0,0,1.074-1.328,20.737,20.737,0,0,0,1.208-3.557c.518-1.95.92-3.921,1.3-5.913q1.122-5.913,2.032-11.848c.671-4.006,1.361-8.013,2.358-11.955h0a22.014,22.014,0,0,1,1.419-4.178h0a4.761,4.761,0,0,1,.844-1.136l.019-.021H239.3c-1.668,0-3.355,0-5.023.021h0a2.865,2.865,0,0,0-1.323,1.65Z" transform="translate(-126.414 -0.079)" fill="#eb7077"/><path d="M310.94,156.9h.824a3.28,3.28,0,0,1,1.035,1.136,14.346,14.346,0,0,1,1.035,2.614c.709,2.4,1.227,4.885,1.706,7.349.633,3.321,1.208,6.685,1.745,10.027.134.793.268,1.607.345,2.421l.134.15a6.165,6.165,0,0,0-.594,1.585,46.532,46.532,0,0,0-1.17,5.87,34.085,34.085,0,0,1-.978,4.585,10.856,10.856,0,0,1-1.342,3.128,2.9,2.9,0,0,1-1.17,1.007c-.709.086-1.112-.664-1.457-1.221a22.934,22.934,0,0,1-1.5-4.392c-1.342-5.528-2.2-11.162-3.144-16.8a.249.249,0,0,0-.115-.193c.671-4.006,1.361-8.013,2.358-11.955a22.018,22.018,0,0,1,1.419-4.178A5.407,5.407,0,0,1,310.94,156.9Z" transform="translate(-193.015 -0.236)" fill="#f6a2ad"/><path d="M310.778,156.821h0a4.811,4.811,0,0,0,.556,0h.268v0a3.058,3.058,0,0,1,1.016,1.136h0a13.759,13.759,0,0,1,1.035,2.614h0c.709,2.4,1.227,4.885,1.706,7.349.633,3.321,1.208,6.685,1.745,10.027.134.793.268,1.607.345,2.421h0l.134.15h-.019a6.473,6.473,0,0,0-.594,1.585h0a46.515,46.515,0,0,0-1.17,5.87,34.081,34.081,0,0,1-.978,4.585,10.855,10.855,0,0,1-1.342,3.128,3.074,3.074,0,0,1-1.17,1.007v0H312.2c-.633,0-1.016-.707-1.342-1.221h0a21.635,21.635,0,0,1-1.476-4.392h0c-1.342-5.528-2.2-11.162-3.144-16.8h0a.259.259,0,0,0-.134-.214v.021h.019c.671-4.006,1.361-8.013,2.358-11.955h0a22.011,22.011,0,0,1,1.419-4.178h0a8.141,8.141,0,0,1,.882-1.136h0a4.365,4.365,0,0,0-.863,1.136h0a22.016,22.016,0,0,0-1.419,4.178h0c-1,3.921-1.706,7.927-2.358,11.955h0a.315.315,0,0,1,.115.193h0c.94,5.613,1.8,11.269,3.144,16.8h0a21.689,21.689,0,0,0,1.5,4.392h0c.326.536.709,1.243,1.361,1.243h.115a3.117,3.117,0,0,0,1.17-1.007,10.389,10.389,0,0,0,1.361-3.128,36.491,36.491,0,0,0,.978-4.585,46.515,46.515,0,0,1,1.17-5.87h0a6.013,6.013,0,0,1,.594-1.564h0l-.134-.15h.019c-.077-.814-.211-1.628-.364-2.421-.556-3.342-1.112-6.706-1.745-10.027-.479-2.464-1-4.949-1.706-7.349h0a13.956,13.956,0,0,0-1.035-2.635h0a3.28,3.28,0,0,0-1.035-1.135h-.268a1.9,1.9,0,0,0-.594-.021Z" transform="translate(-192.854 -0.157)" fill="#f6a2ad"/><path d="M67.5,256.864a6.544,6.544,0,0,1,.671-.064h9.2a3.75,3.75,0,0,1,1.17.214,3.45,3.45,0,0,1,1.38,1.178,1,1,0,0,0,.153-.15c-.211,1.564-.537,3.107-.805,4.671-.441,2.378-.92,4.735-1.515,7.07a24.947,24.947,0,0,1-1.419,4.264,3.433,3.433,0,0,1-.939,1.2c-.134.021-.249-.086-.364-.171a3.151,3.151,0,0,1-.863-1.221c-1.15-2.935-1.285-6.192-1.994-9.277A22.408,22.408,0,0,0,70.7,260.1a7.992,7.992,0,0,0-1.553-2.314A4.434,4.434,0,0,0,67.5,256.864Z" transform="translate(0 -78.732)" fill="#f6a2ad"/><path d="M67.5,256.864h0c.23,0,.441-.043.671-.043h9.2v0a3.749,3.749,0,0,1,1.17.214h0a3.45,3.45,0,0,1,1.38,1.178h.019a1,1,0,0,0,.153-.15v-.021h-.019c-.211,1.564-.537,3.107-.805,4.671-.441,2.378-.92,4.735-1.515,7.07a24.947,24.947,0,0,1-1.419,4.264,3.639,3.639,0,0,1-.939,1.2v0h-.038a.606.606,0,0,1-.326-.171,3.364,3.364,0,0,1-.863-1.221h0c-1.15-2.935-1.285-6.192-1.994-9.277A22.407,22.407,0,0,0,70.7,260.1a7.993,7.993,0,0,0-1.553-2.314h0a3.911,3.911,0,0,0-1.649-.921h0a4.062,4.062,0,0,1,1.63.964v-.021h0a7.992,7.992,0,0,1,1.553,2.314,23.7,23.7,0,0,1,1.476,4.478c.709,3.064.844,6.32,1.994,9.277h0a3.407,3.407,0,0,0,.882,1.221c.1.064.211.171.326.171H75.4a3.433,3.433,0,0,0,.939-1.2,24.947,24.947,0,0,0,1.419-4.264c.594-2.335,1.074-4.713,1.515-7.07.288-1.564.614-3.107.805-4.671v-.043l-.019.021c-.038.043-.115.107-.153.15v.021h.019a3.45,3.45,0,0,0-1.38-1.178v0a3.749,3.749,0,0,0-1.17-.214h-9.2a2.362,2.362,0,0,0-.671.043Z" transform="translate(0 -78.732)" fill="#f6a2ad"/><path d="M344.7,257.82a2.633,2.633,0,0,1,2.128-1.05h6.921c.959.021,1.936-.043,2.9.021a7.868,7.868,0,0,1-.94.471,5.892,5.892,0,0,0-2.531,2.55,18.02,18.02,0,0,0-1.515,5.87,39.012,39.012,0,0,1-.844,5.956,7.458,7.458,0,0,1-1.994,3.6c-3.183.043-6.346,0-9.51.021a2.868,2.868,0,0,1-.614-.043,3.074,3.074,0,0,0,1.17-1.007,10.353,10.353,0,0,0,1.342-3.128,36.507,36.507,0,0,0,.978-4.585,46.5,46.5,0,0,1,1.169-5.87,6.474,6.474,0,0,1,.594-1.585A7.794,7.794,0,0,1,344.7,257.82Z" transform="translate(-219.203 -78.703)" fill="#eb7077"/><path d="M344.539,257.771h0a2.741,2.741,0,0,1,2.032-1.05h8.781a10.325,10.325,0,0,1,1.15.043v-.043a7.86,7.86,0,0,1-.94.471v0a5.831,5.831,0,0,0-2.531,2.571,18.02,18.02,0,0,0-1.515,5.87,38.634,38.634,0,0,1-.844,5.956,7.294,7.294,0,0,1-1.994,3.578v0c-1.38.021-2.742.021-4.122.021H339a1.542,1.542,0,0,1-.441-.043v.043a3.117,3.117,0,0,0,1.17-1.007,10.391,10.391,0,0,0,1.361-3.128,36.507,36.507,0,0,0,.978-4.585,46.514,46.514,0,0,1,1.17-5.87h0a6.012,6.012,0,0,1,.594-1.564,7.14,7.14,0,0,1,.709-1.264h0a7.111,7.111,0,0,0-.748,1.243,6.475,6.475,0,0,0-.594,1.585h0a46.531,46.531,0,0,0-1.17,5.87,34.086,34.086,0,0,1-.978,4.585,10.855,10.855,0,0,1-1.342,3.128,3.074,3.074,0,0,1-1.17,1.007l-.038.021h.038a1.542,1.542,0,0,0,.441.043h5.56c1.38,0,2.742,0,4.122-.021h0a7.648,7.648,0,0,0,2.013-3.6,39.005,39.005,0,0,0,.844-5.956,18.02,18.02,0,0,1,1.515-5.87,5.892,5.892,0,0,1,2.531-2.55h0a5.708,5.708,0,0,0,.939-.493l.038-.021H356.5c-.383-.021-.767-.043-1.15-.043h-8.685v0h-.1a2.572,2.572,0,0,0-2.032,1.071Z" transform="translate(-219.042 -78.654)" fill="#eb7077"/></g></svg>