<svg xmlns="http://www.w3.org/2000/svg" width="162" height="296.933" viewBox="0 0 162 296.933"><g transform="translate(-3330 -4066.534)"><rect width="160.009" height="296.933" rx="16" transform="translate(3330 4066.534)" fill="#515b60"/><rect width="149.371" height="280.12" rx="12" transform="translate(3335.333 4075.321)" fill="#714acd"/><rect width="40.891" height="12.549" rx="6" transform="translate(3390.004 4069.546)" fill="#515b60"/><rect width="6.214" height="27.587" rx="2.69" transform="translate(3485.786 4121.215)" fill="#515b60"/><rect width="6.214" height="27.587" rx="2.69" transform="translate(3485.786 4151.14)" fill="#515b60"/><g transform="translate(3288 4092)"><circle cx="9" cy="9" r="9" transform="translate(85 99)" fill="#fff"/><circle cx="9" cy="9" r="9" transform="translate(113 99)" fill="#fff"/><circle cx="9" cy="9" r="9" transform="translate(141 99)" fill="#fff"/></g><path d="M-45.566-5.566V0h-1.875V-14.219H-42.2a5.269,5.269,0,0,1,3.657,1.191,4.039,4.039,0,0,1,1.323,3.154,3.986,3.986,0,0,1-1.294,3.188,5.5,5.5,0,0,1-3.706,1.118Zm0-1.533H-42.2a3.369,3.369,0,0,0,2.3-.709,2.593,2.593,0,0,0,.8-2.05,2.679,2.679,0,0,0-.8-2.035,3.156,3.156,0,0,0-2.2-.792h-3.477ZM-33.3-9.287a3.841,3.841,0,0,1,3.125-1.475q3.35,0,3.379,3.779V0H-28.6V-6.992a2.432,2.432,0,0,0-.522-1.689,2.094,2.094,0,0,0-1.6-.547,2.607,2.607,0,0,0-1.543.469A3.183,3.183,0,0,0-33.3-7.529V0h-1.807V-15H-33.3Zm8.73,3.906a6.241,6.241,0,0,1,.61-2.793,4.553,4.553,0,0,1,1.7-1.914,4.626,4.626,0,0,1,2.485-.674,4.456,4.456,0,0,1,3.491,1.494,5.748,5.748,0,0,1,1.333,3.975v.127A6.3,6.3,0,0,1-15.542-2.4,4.486,4.486,0,0,1-17.231-.488,4.679,4.679,0,0,1-19.756.2,4.445,4.445,0,0,1-23.237-1.3,5.719,5.719,0,0,1-24.57-5.254Zm1.816.215a4.52,4.52,0,0,0,.815,2.822,2.61,2.61,0,0,0,2.183,1.064,2.594,2.594,0,0,0,2.188-1.079,4.943,4.943,0,0,0,.811-3.022A4.513,4.513,0,0,0-17.583-8.2a2.623,2.623,0,0,0-2.192-1.079,2.594,2.594,0,0,0-2.158,1.064A4.906,4.906,0,0,0-22.754-5.166Zm11.777-5.4.059,1.328a3.85,3.85,0,0,1,3.164-1.523q3.35,0,3.379,3.779V0H-6.182V-6.992A2.432,2.432,0,0,0-6.7-8.682a2.094,2.094,0,0,0-1.6-.547,2.607,2.607,0,0,0-1.543.469,3.183,3.183,0,0,0-1.035,1.23V0h-1.807V-10.566ZM2.734.2a4.617,4.617,0,0,1-3.5-1.411A5.237,5.237,0,0,1-2.109-4.99v-.332a6.341,6.341,0,0,1,.6-2.808,4.685,4.685,0,0,1,1.68-1.934,4.223,4.223,0,0,1,2.339-.7A3.957,3.957,0,0,1,5.713-9.4,5.877,5.877,0,0,1,6.855-5.518v.752H-.3A3.756,3.756,0,0,0,.61-2.241a2.87,2.87,0,0,0,2.222.962A3.147,3.147,0,0,0,4.453-1.67,4.073,4.073,0,0,0,5.615-2.705l1.1.859A4.437,4.437,0,0,1,2.734.2ZM2.51-9.277a2.41,2.41,0,0,0-1.836.8A3.868,3.868,0,0,0-.244-6.25H5.049v-.137a3.441,3.441,0,0,0-.742-2.134A2.269,2.269,0,0,0,2.51-9.277ZM17.08-3.721H11.123L9.785,0H7.852l5.43-14.219h1.641L20.361,0H18.438ZM11.689-5.254h4.834L14.1-11.9ZM28.408-1.045A3.837,3.837,0,0,1,25.313.2a3.285,3.285,0,0,1-2.573-.981,4.248,4.248,0,0,1-.894-2.905v-6.875h1.807V-3.74q0,2.4,1.953,2.4a2.7,2.7,0,0,0,2.754-1.543v-7.686h1.807V0H28.447Zm6.953-12.08v2.559h1.973v1.4H35.361v6.561a1.467,1.467,0,0,0,.264.953,1.11,1.11,0,0,0,.9.318,4.374,4.374,0,0,0,.859-.117V0A5.268,5.268,0,0,1,36,.2,2.25,2.25,0,0,1,34.17-.537a3.147,3.147,0,0,1-.615-2.08V-9.17H31.631v-1.4h1.924v-2.559ZM41.25-9.287a3.841,3.841,0,0,1,3.125-1.475q3.35,0,3.379,3.779V0H45.947V-6.992a2.432,2.432,0,0,0-.522-1.689,2.094,2.094,0,0,0-1.6-.547,2.607,2.607,0,0,0-1.543.469,3.183,3.183,0,0,0-1.035,1.23V0H39.443V-15H41.25Z" transform="translate(3410 4239)" fill="#fff"/></g></svg>