<svg xmlns="http://www.w3.org/2000/svg" xmlns:xlink="http://www.w3.org/1999/xlink" width="288.333" height="203.283" viewBox="0 0 288.333 203.283"><defs><linearGradient id="a" x1="-0.173" y1="0.5" x2="1.173" y2="0.5" gradientUnits="objectBoundingBox"><stop offset="0" stop-color="#39b54a"/><stop offset="1" stop-color="lime"/></linearGradient></defs><g transform="translate(-231 -282.358)"><g transform="translate(231 282.358)"><g transform="translate(0 0)"><path d="M7.483,0H280.835a7.7,7.7,0,0,1,5.3,2.073,6.915,6.915,0,0,1,2.2,5.023V18.528H0V7.1A7.3,7.3,0,0,1,7.483,0Z" transform="translate(0 0)" fill="#7d8488"/><path d="M0,37H288.333V214.659a7.3,7.3,0,0,1-7.483,7.1H7.483A7.3,7.3,0,0,1,0,214.659Z" transform="translate(0 -18.472)" fill="#7d8488"/><path d="M3.58,37H288.037V214.424a5.84,5.84,0,0,1-5.988,5.679H9.558a5.839,5.839,0,0,1-5.978-5.679Z" transform="translate(-1.689 -18.472)" fill="#263238"/><ellipse cx="3.607" cy="3.42" rx="3.607" ry="3.42" transform="translate(9.02 5.834)" fill="#fbb03b"/><ellipse cx="3.607" cy="3.42" rx="3.607" ry="3.42" transform="translate(19.317 5.834)" fill="#6fb353"/><ellipse cx="3.607" cy="3.42" rx="3.607" ry="3.42" transform="translate(30.317 5.834)" fill="#c1272d"/></g></g><g transform="translate(344.063 335.782)"><g transform="translate(-28.789 -1.017)"><path d="M15.667,9.824l57.011-2.49a5.043,5.043,0,0,1,5.354,5.353L75.541,69.7A6.226,6.226,0,0,1,69.7,75.541l-57.011,2.49a5.043,5.043,0,0,1-5.353-5.354l2.49-57.011A6.226,6.226,0,0,1,15.667,9.824Z" transform="translate(0 49.376) rotate(-45)" fill="url(#a)"/><path d="M9.027,9.027,65.519,6.559,63.051,63.051,6.559,65.519Z" transform="translate(9.23 49.197) rotate(-45)" fill="#263238"/><path d="M286.914,247.928v13.266H283.1V226.11h8.944q5.22,0,8.091,2.74t2.872,7.731a11.047,11.047,0,0,1-3.189,8.172,11.637,11.637,0,0,1-8.615,3.174Zm0-18.105v14.392h4a8.489,8.489,0,0,0,6.026-1.945,7.184,7.184,0,0,0,2.077-5.492q0-6.948-7.626-6.948Z" transform="translate(-233.718 -195.951)" fill="#fff"/><path d="M426.738,395.308a5.072,5.072,0,0,1-2.133.381q-3.751,0-3.751-3.537V385H418.4v-1.65h2.454V380.4l2.286-.624v3.573h3.6V385h-3.6v6.8a2.494,2.494,0,0,0,.488,1.734,2.144,2.144,0,0,0,1.618.519,2.71,2.71,0,0,0,1.492-.4Z" transform="translate(-353.282 -330.116)" fill="#fff"/></g></g></g></svg>