<svg xmlns="http://www.w3.org/2000/svg" xmlns:xlink="http://www.w3.org/1999/xlink" width="90" height="90" viewBox="0 0 90 90"><defs><linearGradient id="a" x1="0.13" y1="0.117" x2="0.796" y2="0.785" gradientUnits="objectBoundingBox"><stop offset="0" stop-color="#387eb8"/><stop offset="1" stop-color="#366994"/></linearGradient><linearGradient id="b" x1="0.191" y1="0.203" x2="0.907" y2="0.888" gradientUnits="objectBoundingBox"><stop offset="0" stop-color="#ffe052"/><stop offset="1" stop-color="#ffc331"/></linearGradient></defs><g transform="translate(-473.361 -251.725)"><g transform="translate(473.361 251.725)"><path d="M89.613,67.469c-22.847,0-21.421,9.96-21.421,9.96l.025,10.318h21.8v3.1H59.558s-14.62-1.667-14.62,21.507S57.7,134.7,57.7,134.7h7.616V123.951s-.411-12.827,12.557-12.827H99.5s12.149.2,12.149-11.8V79.477S113.489,67.469,89.613,67.469ZM77.591,74.407a3.943,3.943,0,1,1-3.922,3.943A3.929,3.929,0,0,1,77.591,74.407Z" transform="translate(-44.938 -67.469)" fill="url(#a)"/><path d="M95.539,162.488c22.848,0,21.421-9.96,21.421-9.96l-.025-10.319h-21.8v-3.1h30.463s14.621,1.667,14.621-21.507-12.761-22.353-12.761-22.353h-7.615V106s.41,12.828-12.558,12.828H85.657s-12.15-.2-12.15,11.8V150.48S71.663,162.488,95.539,162.488Zm12.022-6.939a3.943,3.943,0,1,1,3.923-3.943A3.929,3.929,0,0,1,107.561,155.549Z" transform="translate(-50.215 -72.488)" fill="url(#b)"/></g></g></svg>