<svg xmlns="http://www.w3.org/2000/svg" xmlns:xlink="http://www.w3.org/1999/xlink" width="80" height="80" viewBox="0 0 80 80"><defs><linearGradient id="a" x1="0.13" y1="0.117" x2="0.796" y2="0.785" gradientUnits="objectBoundingBox"><stop offset="0" stop-color="#387eb8"/><stop offset="1" stop-color="#366994"/></linearGradient><linearGradient id="b" x1="0.191" y1="0.203" x2="0.907" y2="0.888" gradientUnits="objectBoundingBox"><stop offset="0" stop-color="#ffe052"/><stop offset="1" stop-color="#ffc331"/></linearGradient></defs><g transform="translate(-2358 -8622)"><rect width="80" height="80" transform="translate(2358 8622)" fill="#fff" opacity="0"/><g transform="translate(1899.639 8385.275)"><g transform="translate(473.361 251.725)"><path d="M69.757,67.469c-12.693,0-11.9,5.533-11.9,5.533l.014,5.732H69.984v1.721H53.06S44.938,79.53,44.938,92.4s7.089,12.418,7.089,12.418h4.231V98.848s-.228-7.126,6.976-7.126H75.248s6.75.11,6.75-6.557V74.14S83.022,67.469,69.757,67.469Zm-6.679,3.855A2.191,2.191,0,1,1,60.9,73.514,2.183,2.183,0,0,1,63.078,71.324Z" transform="translate(-44.938 -67.469)" fill="url(#a)"/><path d="M85.733,132.6c12.693,0,11.9-5.533,11.9-5.533l-.014-5.733H85.506v-1.721H102.43s8.123.926,8.123-11.949-7.09-12.418-7.09-12.418H99.232v5.974s.228,7.127-6.976,7.127H80.242s-6.75-.11-6.75,6.557v11.024S72.468,132.6,85.733,132.6Zm6.679-3.855a2.191,2.191,0,1,1,2.179-2.19A2.183,2.183,0,0,1,92.412,128.748Z" transform="translate(-60.553 -82.603)" fill="url(#b)"/></g></g></g></svg>