<svg xmlns="http://www.w3.org/2000/svg" width="40" height="40" viewBox="0 0 40 40"><path d="M34.417,22.968a6.648,6.648,0,0,0-3.624,1.12,12.216,12.216,0,0,1-.811-2.5,8.927,8.927,0,0,1-.073-2.1c.088-.9.482-2.173.475-2.27s-.088-.555-.891-.565-1.5.2-1.578.487a14.894,14.894,0,0,0-.336,1.588,43.245,43.245,0,0,1-2.448,6.274,8.21,8.21,0,0,1-.555-1.832,8.927,8.927,0,0,1-.073-2.1c.088-.9.482-2.173.475-2.27s-.088-.555-.891-.565-1.5.2-1.578.487-.168.945-.336,1.588-2.119,6.449-2.63,7.95c-.263.77-.49,1.383-.65,1.8h0a.521.521,0,0,1-.029.078c-.139.36-.219.555-.219.555v.01c-.11.263-.226.507-.285.507a4.312,4.312,0,0,1,.015-1.656c.292-2.017.986-5.154.979-5.261A.79.79,0,0,0,18.9,23.4a.614.614,0,0,0-.826.185c-.051,0-.088.166-.088.166s.636-3.527-1.213-3.527c-1.154,0-2.747,1.685-3.536,3.205-.5.36-1.556,1.13-2.689,1.958-.431.321-.877.643-1.293.945-.029-.039-.058-.088-.088-.127-2.236-3.186-6.371-5.436-6.2-9.713.066-1.559.468-5.651,7.942-10.619,6.152-4.043,11.047-2.923,11.894-.438,1.213,3.546-2.623,10.132-8.979,11.087A4.055,4.055,0,0,1,9.81,15.164c-.336-.487-.387-.516-.511-.419-.2.146-.073.585,0,.838a4.25,4.25,0,0,0,2.294,2.406c1.169.507,4.011.789,7.452-.984,3.85-1.987,6.86-7.511,5.976-12.139-.884-4.7-6.729-6.245-12.26-3.624A27.266,27.266,0,0,0,3.344,8.452C.3,12.252-.185,15.554.012,16.938.721,21.848,5.8,25.043,7.83,27.411c-.1.078-.2.146-.278.2-1.016.672-4.888,3.371-5.852,6.225-1.1,3.234.175,5.553,1.016,5.865,2.608.964,5.29-.77,6.729-3.634a11.658,11.658,0,0,0,.6-8.291.219.219,0,0,0-.029-.058c.263-.2.533-.419.8-.624.519-.409,1.03-.789,1.469-1.1a16.651,16.651,0,0,0-.519,3.546,9.153,9.153,0,0,0,1.191,5.144,1.111,1.111,0,0,0,.964.419c.862,0,1.249-.955,1.68-2.085.526-1.383,1-2.991,1-2.991s-.592,4.345,1.016,4.345c.584,0,1.176-1.013,1.439-1.53v.01s.015-.029.044-.1l.095-.2v-.019c.234-.546.76-1.783,1.542-3.838,1.008-2.65,1.98-5.962,1.98-5.962a21.832,21.832,0,0,0,.387,2.153,24.15,24.15,0,0,0,.833,2.494c-.234.438-.38.682-.38.682l.007.01c-.19.331-.395.692-.621,1.042a31.406,31.406,0,0,0-1.878,3.137,1.039,1.039,0,0,0,.175,1.15,1.258,1.258,0,0,0,.979.214,3.607,3.607,0,0,0,1.469-.448,4.664,4.664,0,0,0,1.264-.887,4.3,4.3,0,0,0,1.213-3.322,8.543,8.543,0,0,0-.46-2.348c.073-.136.139-.273.212-.409A50.213,50.213,0,0,0,28.1,21.156a21.832,21.832,0,0,0,.387,2.153,17.209,17.209,0,0,0,.709,2.143,9.49,9.49,0,0,0-2.133,3.673c-.46,1.773-.1,2.572.577,2.757a1.617,1.617,0,0,0,1.067-.292,4.56,4.56,0,0,0,1.352-.926,4.4,4.4,0,0,0,1.49-3.293,8.008,8.008,0,0,0-.336-1.948,5.911,5.911,0,0,1,3.88-.594,4.438,4.438,0,0,1,4.033,4.657,3.138,3.138,0,0,1-1.1,2.085c-.241.2-.321.273-.3.419.029.214.146.2.351.166A3.469,3.469,0,0,0,39.97,28.93,5.585,5.585,0,0,0,34.417,22.968ZM7.589,35.029C6.434,36.7,4.827,37.338,4.133,36.8c-.745-.575-.453-3.049.964-4.822a19.917,19.917,0,0,1,2.711-2.7c.168-.136.416-.331.716-.575.051-.039.08-.058.08-.058h0L8.78,28.5A8.3,8.3,0,0,1,7.589,35.029Zm8.4-7.618c-.4,1.305-1.242,4.647-1.753,4.462-.438-.156-.709-2.689-.088-5.193a13.347,13.347,0,0,1,1.366-3.342c.628-.935,1.322-1.247,1.49-.867C17.218,22.968,16.239,26.592,15.991,27.411Zm6.934,4.423c-.168.117-.329.195-.4.136-.051-.039.073-.195.073-.195s.869-1.247,1.213-1.812c.2-.331.431-.721.679-1.159v.127A3.947,3.947,0,0,1,22.924,31.834Zm5.348-1.627c-.124-.117-.1-.507.314-1.724a6.653,6.653,0,0,1,1.191-2.046,3.6,3.6,0,0,1,.117.9A2.89,2.89,0,0,1,28.272,30.207Z" transform="translate(0.026 0.026)" fill="#cd6799"/></svg>