<svg xmlns="http://www.w3.org/2000/svg" width="90" height="90" viewBox="0 0 90 90"><path d="M15.938,0H74.062A16.132,16.132,0,0,1,90,16.346V73.654A16.132,16.132,0,0,1,74.062,90H15.938A16.132,16.132,0,0,1,0,73.654V16.346A16.132,16.132,0,0,1,15.938,0Z" fill="#470137"/><g transform="translate(13.11 19.725)"><path d="M69.175,60.577,57.925,79.615l12,20.192a.677.677,0,0,1,.075.462c-.037.154-.187.038-.412.077H61c-.6,0-1.012-.038-1.275-.423-.787-1.615-1.613-3.192-2.4-4.808-.788-1.577-1.65-3.192-2.55-4.846s-1.8-3.308-2.7-5H52c-.787,1.654-1.65,3.308-2.512,4.962s-1.725,3.308-2.55,4.923c-.863,1.615-1.725,3.269-2.588,4.846-.15.385-.45.423-.862.423h-8.25c-.15,0-.263.077-.263-.115a.545.545,0,0,1,.075-.423L46.713,80.269,35.35,60.538c-.112-.154-.15-.308-.075-.385A.43.43,0,0,1,35.65,60h8.513a2.162,2.162,0,0,1,.525.077,1.073,1.073,0,0,1,.375.346c.712,1.654,1.538,3.308,2.4,4.962.9,1.654,1.762,3.269,2.7,4.885.9,1.615,1.725,3.231,2.513,4.885h.075c.788-1.692,1.613-3.346,2.438-4.962s1.688-3.231,2.55-4.846,1.688-3.269,2.512-4.846a.657.657,0,0,1,.225-.385.7.7,0,0,1,.487-.077h7.912a.345.345,0,0,1,.412.269c.037.038-.037.192-.112.269Z" transform="translate(-34.961 -56.648)" fill="#ff61f6"/><path d="M146.085,95.79a18.247,18.247,0,0,1-8.062-1.731,13.2,13.2,0,0,1-5.663-5.231A16.982,16.982,0,0,1,130.3,80.06a16.113,16.113,0,0,1,2.063-8.115,15.763,15.763,0,0,1,5.962-5.962,18.793,18.793,0,0,1,9.488-2.231,6.531,6.531,0,0,1,.787.038c.337.038.713.038,1.162.077V51.714c0-.269.113-.423.375-.423h7.613a.337.337,0,0,1,.375.269V88.252c0,.692.038,1.462.075,2.308.075.808.112,1.577.15,2.231a.626.626,0,0,1-.375.615,28.1,28.1,0,0,1-6.112,1.846A32.275,32.275,0,0,1,146.085,95.79ZM149.76,88.1V71.175a9.377,9.377,0,0,0-1.012-.192c-.413-.038-.825-.077-1.238-.077a9.054,9.054,0,0,0-4.238,1,8.474,8.474,0,0,0-3.187,2.846,8.693,8.693,0,0,0-1.238,4.885,10.967,10.967,0,0,0,.637,3.962,7.545,7.545,0,0,0,1.688,2.731,6.446,6.446,0,0,0,2.55,1.538,9.592,9.592,0,0,0,3.112.5c.562,0,1.087-.038,1.575-.077A3.2,3.2,0,0,0,149.76,88.1Z" transform="translate(-94.545 -51.284)" fill="#ff61f6"/></g></svg>