<svg xmlns="http://www.w3.org/2000/svg" width="80" height="80" viewBox="0 0 80 80"><g transform="translate(-1093 -4236)"><g transform="translate(1108 4251)"><path d="M8.854,0H41.146A8.962,8.962,0,0,1,50,9.081V40.919A8.962,8.962,0,0,1,41.146,50H8.854A8.962,8.962,0,0,1,0,40.919V9.081A8.962,8.962,0,0,1,8.854,0Z" fill="#470137"/><g transform="translate(7.283 10.958)"><path d="M53.969,60.321,47.719,70.9l6.667,11.218a.376.376,0,0,1,.042.256c-.021.085-.1.021-.229.043H49.427c-.333,0-.562-.021-.708-.235-.437-.9-.9-1.774-1.333-2.671-.437-.876-.917-1.774-1.417-2.692s-1-1.838-1.5-2.778h-.042c-.437.919-.917,1.838-1.4,2.756s-.958,1.838-1.417,2.735c-.479.9-.958,1.816-1.437,2.692-.083.214-.25.235-.479.235H35.115c-.083,0-.146.043-.146-.064a.3.3,0,0,1,.042-.235l6.479-10.9L35.177,60.3c-.062-.085-.083-.171-.042-.214A.239.239,0,0,1,35.344,60h4.729a1.2,1.2,0,0,1,.292.043.6.6,0,0,1,.208.192c.4.919.854,1.838,1.333,2.756.5.919.979,1.816,1.5,2.714.5.9.958,1.795,1.4,2.714h.042c.438-.94.9-1.859,1.354-2.756s.938-1.795,1.417-2.692.938-1.816,1.4-2.692a.365.365,0,0,1,.125-.214.389.389,0,0,1,.271-.043h4.4a.192.192,0,0,1,.229.15c.021.021-.021.107-.062.15Z" transform="translate(-34.961 -58.138)" fill="#ff61f6"/><path d="M139.068,76.01a10.137,10.137,0,0,1-4.479-.962,7.331,7.331,0,0,1-3.146-2.906,9.434,9.434,0,0,1-1.146-4.872,8.951,8.951,0,0,1,1.146-4.509,8.757,8.757,0,0,1,3.312-3.312,10.44,10.44,0,0,1,5.271-1.239,3.629,3.629,0,0,1,.438.021c.188.021.4.021.646.043V51.523c0-.15.063-.235.208-.235h4.229a.187.187,0,0,1,.208.15V71.822c0,.385.021.812.042,1.282.042.449.063.876.083,1.239a.348.348,0,0,1-.208.342,15.611,15.611,0,0,1-3.4,1.026A17.931,17.931,0,0,1,139.068,76.01Zm2.042-4.274v-9.4a5.21,5.21,0,0,0-.562-.107c-.229-.021-.458-.043-.687-.043a5.03,5.03,0,0,0-2.354.556,4.708,4.708,0,0,0-1.771,1.581,4.829,4.829,0,0,0-.687,2.714,6.092,6.092,0,0,0,.354,2.2,4.192,4.192,0,0,0,.938,1.517,3.581,3.581,0,0,0,1.417.855,5.329,5.329,0,0,0,1.729.278c.312,0,.6-.021.875-.043A1.78,1.78,0,0,0,141.11,71.737Z" transform="translate(-110.435 -51.284)" fill="#ff61f6"/></g></g><g transform="translate(1093 4236)" fill="none" stroke="#fff" stroke-width="1" opacity="0"><rect width="80" height="80" stroke="none"/><rect x="0.5" y="0.5" width="79" height="79" fill="none"/></g></g></svg>